<?xml version="1.0" encoding="UTF-8" standalone="no"?>
<!DOCTYPE svg PUBLIC "-//W3C//DTD SVG 1.1//EN"
 "http://www.w3.org/Graphics/SVG/1.1/DTD/svg11.dtd">
<!-- Generated by graphviz version 4.0.0 (0)
 -->
<!-- Pages: 1 -->
<svg width="1514pt" height="620pt"
 viewBox="0.00 0.00 1514.00 620.00" xmlns="http://www.w3.org/2000/svg" xmlns:xlink="http://www.w3.org/1999/xlink">
<g id="graph0" class="graph" transform="scale(1 1) rotate(0) translate(4 616)">
<polygon fill="white" stroke="transparent" points="-4,4 -4,-616 1510,-616 1510,4 -4,4"/>
<!-- [root] aws_db_instance.database (expand) -->
<g id="node1" class="node">
<title>[root] aws_db_instance.database (expand)</title>
<polygon fill="none" stroke="black" points="434,-396 275,-396 275,-360 434,-360 434,-396"/>
<text text-anchor="middle" x="354.5" y="-374.3" font-family="Times,serif" font-size="14.00">aws_db_instance.database</text>
</g>
<!-- [root] aws_db_subnet_group.duck&#45;subnet&#45;group (expand) -->
<g id="node3" class="node">
<title>[root] aws_db_subnet_group.duck&#45;subnet&#45;group (expand)</title>
<polygon fill="none" stroke="black" points="833.5,-324 589.5,-324 589.5,-288 833.5,-288 833.5,-324"/>
<text text-anchor="middle" x="711.5" y="-302.3" font-family="Times,serif" font-size="14.00">aws_db_subnet_group.duck&#45;subnet&#45;group</text>
</g>
<!-- [root] aws_db_instance.database (expand)&#45;&gt;[root] aws_db_subnet_group.duck&#45;subnet&#45;group (expand) -->
<g id="edge1" class="edge">
<title>[root] aws_db_instance.database (expand)&#45;&gt;[root] aws_db_subnet_group.duck&#45;subnet&#45;group (expand)</title>
<path fill="none" stroke="black" d="M434.17,-361.38C487.49,-350.92 557.97,-337.1 614.54,-326.01"/>
<polygon fill="black" stroke="black" points="615.43,-329.4 624.57,-324.04 614.09,-322.53 615.43,-329.4"/>
</g>
<!-- [root] aws_security_group.rds&#45;sg (expand) -->
<g id="node9" class="node">
<title>[root] aws_security_group.rds&#45;sg (expand)</title>
<polygon fill="none" stroke="black" points="571.5,-324 409.5,-324 409.5,-288 571.5,-288 571.5,-324"/>
<text text-anchor="middle" x="490.5" y="-302.3" font-family="Times,serif" font-size="14.00">aws_security_group.rds&#45;sg</text>
</g>
<!-- [root] aws_db_instance.database (expand)&#45;&gt;[root] aws_security_group.rds&#45;sg (expand) -->
<g id="edge2" class="edge">
<title>[root] aws_db_instance.database (expand)&#45;&gt;[root] aws_security_group.rds&#45;sg (expand)</title>
<path fill="none" stroke="black" d="M387.77,-359.88C405.96,-350.51 428.69,-338.81 448.14,-328.8"/>
<polygon fill="black" stroke="black" points="449.81,-331.88 457.1,-324.19 446.61,-325.65 449.81,-331.88"/>
</g>
<!-- [root] var.db_name -->
<g id="node17" class="node">
<title>[root] var.db_name</title>
<polygon fill="none" stroke="black" points="81,-324 0,-324 0,-288 87,-288 87,-318 81,-324"/>
<polyline fill="none" stroke="black" points="81,-324 81,-318 "/>
<polyline fill="none" stroke="black" points="87,-318 81,-318 "/>
<text text-anchor="middle" x="43.5" y="-302.3" font-family="Times,serif" font-size="14.00">var.db_name</text>
</g>
<!-- [root] aws_db_instance.database (expand)&#45;&gt;[root] var.db_name -->
<g id="edge3" class="edge">
<title>[root] aws_db_instance.database (expand)&#45;&gt;[root] var.db_name</title>
<path fill="none" stroke="black" d="M274.95,-362.95C226.18,-353.81 162.36,-340.88 97.12,-324.01"/>
<polygon fill="black" stroke="black" points="97.62,-320.53 87.06,-321.38 95.85,-327.3 97.62,-320.53"/>
</g>
<!-- [root] var.engine -->
<g id="node18" class="node">
<title>[root] var.engine</title>
<polygon fill="none" stroke="black" points="385,-324 318,-324 318,-288 391,-288 391,-318 385,-324"/>
<polyline fill="none" stroke="black" points="385,-324 385,-318 "/>
<polyline fill="none" stroke="black" points="391,-318 385,-318 "/>
<text text-anchor="middle" x="354.5" y="-302.3" font-family="Times,serif" font-size="14.00">var.engine</text>
</g>
<!-- [root] aws_db_instance.database (expand)&#45;&gt;[root] var.engine -->
<g id="edge4" class="edge">
<title>[root] aws_db_instance.database (expand)&#45;&gt;[root] var.engine</title>
<path fill="none" stroke="black" d="M354.5,-359.7C354.5,-351.98 354.5,-342.71 354.5,-334.11"/>
<polygon fill="black" stroke="black" points="358,-334.1 354.5,-324.1 351,-334.1 358,-334.1"/>
</g>
<!-- [root] var.password -->
<g id="node19" class="node">
<title>[root] var.password</title>
<polygon fill="none" stroke="black" points="187.5,-324 105.5,-324 105.5,-288 193.5,-288 193.5,-318 187.5,-324"/>
<polyline fill="none" stroke="black" points="187.5,-324 187.5,-318 "/>
<polyline fill="none" stroke="black" points="193.5,-318 187.5,-318 "/>
<text text-anchor="middle" x="149.5" y="-302.3" font-family="Times,serif" font-size="14.00">var.password</text>
</g>
<!-- [root] aws_db_instance.database (expand)&#45;&gt;[root] var.password -->
<g id="edge5" class="edge">
<title>[root] aws_db_instance.database (expand)&#45;&gt;[root] var.password</title>
<path fill="none" stroke="black" d="M304.61,-359.97C273.9,-349.48 234.53,-336.03 203.14,-325.32"/>
<polygon fill="black" stroke="black" points="204.27,-322 193.67,-322.08 202.01,-328.63 204.27,-322"/>
</g>
<!-- [root] var.username -->
<g id="node23" class="node">
<title>[root] var.username</title>
<polygon fill="none" stroke="black" points="294,-324 211,-324 211,-288 300,-288 300,-318 294,-324"/>
<polyline fill="none" stroke="black" points="294,-324 294,-318 "/>
<polyline fill="none" stroke="black" points="300,-318 294,-318 "/>
<text text-anchor="middle" x="255.5" y="-302.3" font-family="Times,serif" font-size="14.00">var.username</text>
</g>
<!-- [root] aws_db_instance.database (expand)&#45;&gt;[root] var.username -->
<g id="edge6" class="edge">
<title>[root] aws_db_instance.database (expand)&#45;&gt;[root] var.username</title>
<path fill="none" stroke="black" d="M330.28,-359.88C317.58,-350.89 301.84,-339.76 288.08,-330.03"/>
<polygon fill="black" stroke="black" points="290,-327.11 279.81,-324.19 285.96,-332.82 290,-327.11"/>
</g>
<!-- [root] aws_db_proxy.rds_proxy (expand) -->
<g id="node2" class="node">
<title>[root] aws_db_proxy.rds_proxy (expand)</title>
<polygon fill="none" stroke="black" points="788.5,-396 634.5,-396 634.5,-360 788.5,-360 788.5,-396"/>
<text text-anchor="middle" x="711.5" y="-374.3" font-family="Times,serif" font-size="14.00">aws_db_proxy.rds_proxy</text>
</g>
<!-- [root] aws_db_proxy.rds_proxy (expand)&#45;&gt;[root] aws_db_subnet_group.duck&#45;subnet&#45;group (expand) -->
<g id="edge7" class="edge">
<title>[root] aws_db_proxy.rds_proxy (expand)&#45;&gt;[root] aws_db_subnet_group.duck&#45;subnet&#45;group (expand)</title>
<path fill="none" stroke="black" d="M711.5,-359.7C711.5,-351.98 711.5,-342.71 711.5,-334.11"/>
<polygon fill="black" stroke="black" points="715,-334.1 711.5,-324.1 708,-334.1 715,-334.1"/>
</g>
<!-- [root] aws_iam_role.rds_proxy_iam_role (expand) -->
<g id="node5" class="node">
<title>[root] aws_iam_role.rds_proxy_iam_role (expand)</title>
<polygon fill="none" stroke="black" points="1506,-324 1299,-324 1299,-288 1506,-288 1506,-324"/>
<text text-anchor="middle" x="1402.5" y="-302.3" font-family="Times,serif" font-size="14.00">aws_iam_role.rds_proxy_iam_role</text>
</g>
<!-- [root] aws_db_proxy.rds_proxy (expand)&#45;&gt;[root] aws_iam_role.rds_proxy_iam_role (expand) -->
<g id="edge8" class="edge">
<title>[root] aws_db_proxy.rds_proxy (expand)&#45;&gt;[root] aws_iam_role.rds_proxy_iam_role (expand)</title>
<path fill="none" stroke="black" d="M788.92,-371.38C898.11,-363.13 1103.79,-346.39 1288.62,-324.19"/>
<polygon fill="black" stroke="black" points="1289.29,-327.64 1298.8,-322.96 1288.45,-320.69 1289.29,-327.64"/>
</g>
<!-- [root] aws_secretsmanager_secret.rds_secret (expand) -->
<g id="node7" class="node">
<title>[root] aws_secretsmanager_secret.rds_secret (expand)</title>
<polygon fill="none" stroke="black" points="1141,-252 916,-252 916,-216 1141,-216 1141,-252"/>
<text text-anchor="middle" x="1028.5" y="-230.3" font-family="Times,serif" font-size="14.00">aws_secretsmanager_secret.rds_secret</text>
</g>
<!-- [root] aws_db_proxy.rds_proxy (expand)&#45;&gt;[root] aws_secretsmanager_secret.rds_secret (expand) -->
<g id="edge9" class="edge">
<title>[root] aws_db_proxy.rds_proxy (expand)&#45;&gt;[root] aws_secretsmanager_secret.rds_secret (expand)</title>
<path fill="none" stroke="black" d="M764.29,-359.93C788.92,-350.91 818.1,-338.65 842.5,-324 863.87,-311.17 863.94,-300.51 885.5,-288 908.34,-274.74 935.1,-263.77 959.25,-255.31"/>
<polygon fill="black" stroke="black" points="960.38,-258.62 968.71,-252.08 958.12,-252 960.38,-258.62"/>
</g>
<!-- [root] aws_db_proxy.rds_proxy (expand)&#45;&gt;[root] aws_security_group.rds&#45;sg (expand) -->
<g id="edge10" class="edge">
<title>[root] aws_db_proxy.rds_proxy (expand)&#45;&gt;[root] aws_security_group.rds&#45;sg (expand)</title>
<path fill="none" stroke="black" d="M657.72,-359.97C626.57,-350.1 587.18,-337.62 554.45,-327.25"/>
<polygon fill="black" stroke="black" points="555.11,-323.79 544.52,-324.11 553,-330.47 555.11,-323.79"/>
</g>
<!-- [root] aws_db_proxy.rds_proxy (expand)&#45;&gt;[root] var.engine -->
<g id="edge11" class="edge">
<title>[root] aws_db_proxy.rds_proxy (expand)&#45;&gt;[root] var.engine</title>
<path fill="none" stroke="black" d="M634.28,-367.89C573.18,-359.75 485.72,-346.05 401,-323.85"/>
<polygon fill="black" stroke="black" points="401.78,-320.44 391.21,-321.25 399.98,-327.2 401.78,-320.44"/>
</g>
<!-- [root] aws_subnet.primary&#45;subnet (expand) -->
<g id="node10" class="node">
<title>[root] aws_subnet.primary&#45;subnet (expand)</title>
<polygon fill="none" stroke="black" points="898,-252 731,-252 731,-216 898,-216 898,-252"/>
<text text-anchor="middle" x="814.5" y="-230.3" font-family="Times,serif" font-size="14.00">aws_subnet.primary&#45;subnet</text>
</g>
<!-- [root] aws_db_subnet_group.duck&#45;subnet&#45;group (expand)&#45;&gt;[root] aws_subnet.primary&#45;subnet (expand) -->
<g id="edge12" class="edge">
<title>[root] aws_db_subnet_group.duck&#45;subnet&#45;group (expand)&#45;&gt;[root] aws_subnet.primary&#45;subnet (expand)</title>
<path fill="none" stroke="black" d="M736.7,-287.88C749.91,-278.89 766.29,-267.76 780.61,-258.03"/>
<polygon fill="black" stroke="black" points="782.9,-260.71 789.21,-252.19 778.97,-254.92 782.9,-260.71"/>
</g>
<!-- [root] aws_subnet.standby&#45;subnet (expand) -->
<g id="node11" class="node">
<title>[root] aws_subnet.standby&#45;subnet (expand)</title>
<polygon fill="none" stroke="black" points="713,-252 548,-252 548,-216 713,-216 713,-252"/>
<text text-anchor="middle" x="630.5" y="-230.3" font-family="Times,serif" font-size="14.00">aws_subnet.standby&#45;subnet</text>
</g>
<!-- [root] aws_db_subnet_group.duck&#45;subnet&#45;group (expand)&#45;&gt;[root] aws_subnet.standby&#45;subnet (expand) -->
<g id="edge13" class="edge">
<title>[root] aws_db_subnet_group.duck&#45;subnet&#45;group (expand)&#45;&gt;[root] aws_subnet.standby&#45;subnet (expand)</title>
<path fill="none" stroke="black" d="M691.48,-287.7C681.37,-278.97 668.96,-268.24 657.98,-258.75"/>
<polygon fill="black" stroke="black" points="660.15,-255.99 650.29,-252.1 655.57,-261.29 660.15,-255.99"/>
</g>
<!-- [root] aws_iam_policy.rds_proxy_iam_policy (expand) -->
<g id="node4" class="node">
<title>[root] aws_iam_policy.rds_proxy_iam_policy (expand)</title>
<polygon fill="none" stroke="black" points="1258.5,-396 1026.5,-396 1026.5,-360 1258.5,-360 1258.5,-396"/>
<text text-anchor="middle" x="1142.5" y="-374.3" font-family="Times,serif" font-size="14.00">aws_iam_policy.rds_proxy_iam_policy</text>
</g>
<!-- [root] data.aws_iam_policy_document.rds_proxy_policy_document (expand) -->
<g id="node14" class="node">
<title>[root] data.aws_iam_policy_document.rds_proxy_policy_document (expand)</title>
<polygon fill="none" stroke="black" points="1281,-324 928,-324 928,-288 1281,-288 1281,-324"/>
<text text-anchor="middle" x="1104.5" y="-302.3" font-family="Times,serif" font-size="14.00">data.aws_iam_policy_document.rds_proxy_policy_document</text>
</g>
<!-- [root] aws_iam_policy.rds_proxy_iam_policy (expand)&#45;&gt;[root] data.aws_iam_policy_document.rds_proxy_policy_document (expand) -->
<g id="edge14" class="edge">
<title>[root] aws_iam_policy.rds_proxy_iam_policy (expand)&#45;&gt;[root] data.aws_iam_policy_document.rds_proxy_policy_document (expand)</title>
<path fill="none" stroke="black" d="M1133.11,-359.7C1128.74,-351.64 1123.44,-341.89 1118.6,-332.98"/>
<polygon fill="black" stroke="black" points="1121.63,-331.22 1113.79,-324.1 1115.48,-334.56 1121.63,-331.22"/>
</g>
<!-- [root] data.aws_iam_policy_document.assume_role (expand) -->
<g id="node13" class="node">
<title>[root] data.aws_iam_policy_document.assume_role (expand)</title>
<polygon fill="none" stroke="black" points="1382,-180 1117,-180 1117,-144 1382,-144 1382,-180"/>
<text text-anchor="middle" x="1249.5" y="-158.3" font-family="Times,serif" font-size="14.00">data.aws_iam_policy_document.assume_role</text>
</g>
<!-- [root] aws_iam_role.rds_proxy_iam_role (expand)&#45;&gt;[root] data.aws_iam_policy_document.assume_role (expand) -->
<g id="edge15" class="edge">
<title>[root] aws_iam_role.rds_proxy_iam_role (expand)&#45;&gt;[root] data.aws_iam_policy_document.assume_role (expand)</title>
<path fill="none" stroke="black" d="M1384.04,-287.87C1356.93,-262.71 1306.23,-215.65 1275.4,-187.04"/>
<polygon fill="black" stroke="black" points="1277.73,-184.43 1268.02,-180.19 1272.97,-189.56 1277.73,-184.43"/>
</g>
<!-- [root] aws_iam_role_policy_attachment.rds_proxy_iam_attach (expand) -->
<g id="node6" class="node">
<title>[root] aws_iam_role_policy_attachment.rds_proxy_iam_attach (expand)</title>
<polygon fill="none" stroke="black" points="1401.5,-468 1075.5,-468 1075.5,-432 1401.5,-432 1401.5,-468"/>
<text text-anchor="middle" x="1238.5" y="-446.3" font-family="Times,serif" font-size="14.00">aws_iam_role_policy_attachment.rds_proxy_iam_attach</text>
</g>
<!-- [root] aws_iam_role_policy_attachment.rds_proxy_iam_attach (expand)&#45;&gt;[root] aws_iam_policy.rds_proxy_iam_policy (expand) -->
<g id="edge16" class="edge">
<title>[root] aws_iam_role_policy_attachment.rds_proxy_iam_attach (expand)&#45;&gt;[root] aws_iam_policy.rds_proxy_iam_policy (expand)</title>
<path fill="none" stroke="black" d="M1214.77,-431.7C1202.56,-422.8 1187.51,-411.82 1174.32,-402.2"/>
<polygon fill="black" stroke="black" points="1176.1,-399.17 1165.96,-396.1 1171.98,-404.82 1176.1,-399.17"/>
</g>
<!-- [root] aws_iam_role_policy_attachment.rds_proxy_iam_attach (expand)&#45;&gt;[root] aws_iam_role.rds_proxy_iam_role (expand) -->
<g id="edge17" class="edge">
<title>[root] aws_iam_role_policy_attachment.rds_proxy_iam_attach (expand)&#45;&gt;[root] aws_iam_role.rds_proxy_iam_role (expand)</title>
<path fill="none" stroke="black" d="M1258.28,-431.87C1287.34,-406.71 1341.69,-359.65 1374.73,-331.04"/>
<polygon fill="black" stroke="black" points="1377.38,-333.38 1382.65,-324.19 1372.8,-328.09 1377.38,-333.38"/>
</g>
<!-- [root] provider[&quot;registry.terraform.io/hashicorp/aws&quot;] -->
<g id="node15" class="node">
<title>[root] provider[&quot;registry.terraform.io/hashicorp/aws&quot;]</title>
<polygon fill="none" stroke="black" points="1028.5,-108 775.96,-90 1028.5,-72 1281.04,-90 1028.5,-108"/>
<text text-anchor="middle" x="1028.5" y="-86.3" font-family="Times,serif" font-size="14.00">provider[&quot;registry.terraform.io/hashicorp/aws&quot;]</text>
</g>
<!-- [root] aws_secretsmanager_secret.rds_secret (expand)&#45;&gt;[root] provider[&quot;registry.terraform.io/hashicorp/aws&quot;] -->
<g id="edge18" class="edge">
<title>[root] aws_secretsmanager_secret.rds_secret (expand)&#45;&gt;[root] provider[&quot;registry.terraform.io/hashicorp/aws&quot;]</title>
<path fill="none" stroke="black" d="M1028.5,-215.87C1028.5,-191.67 1028.5,-147.21 1028.5,-118.39"/>
<polygon fill="black" stroke="black" points="1032,-118.19 1028.5,-108.19 1025,-118.19 1032,-118.19"/>
</g>
<!-- [root] aws_secretsmanager_secret_version.rds_secret_version (expand) -->
<g id="node8" class="node">
<title>[root] aws_secretsmanager_secret_version.rds_secret_version (expand)</title>
<polygon fill="none" stroke="black" points="1057.5,-468 739.5,-468 739.5,-432 1057.5,-432 1057.5,-468"/>
<text text-anchor="middle" x="898.5" y="-446.3" font-family="Times,serif" font-size="14.00">aws_secretsmanager_secret_version.rds_secret_version</text>
</g>
<!-- [root] aws_secretsmanager_secret_version.rds_secret_version (expand)&#45;&gt;[root] aws_db_instance.database (expand) -->
<g id="edge19" class="edge">
<title>[root] aws_secretsmanager_secret_version.rds_secret_version (expand)&#45;&gt;[root] aws_db_instance.database (expand)</title>
<path fill="none" stroke="black" d="M766.12,-431.97C666.29,-419.12 532.02,-401.84 444.4,-390.57"/>
<polygon fill="black" stroke="black" points="444.58,-387.06 434.21,-389.26 443.69,-394.01 444.58,-387.06"/>
</g>
<!-- [root] aws_secretsmanager_secret_version.rds_secret_version (expand)&#45;&gt;[root] aws_secretsmanager_secret.rds_secret (expand) -->
<g id="edge20" class="edge">
<title>[root] aws_secretsmanager_secret_version.rds_secret_version (expand)&#45;&gt;[root] aws_secretsmanager_secret.rds_secret (expand)</title>
<path fill="none" stroke="black" d="M895.82,-431.83C891.86,-400.17 887.96,-331.81 919.5,-288 929.27,-274.42 943.49,-264.17 958.44,-256.48"/>
<polygon fill="black" stroke="black" points="960.29,-259.48 967.82,-252.02 957.29,-253.16 960.29,-259.48"/>
</g>
<!-- [root] aws_vpc.duck&#45;vpc (expand) -->
<g id="node12" class="node">
<title>[root] aws_vpc.duck&#45;vpc (expand)</title>
<polygon fill="none" stroke="black" points="781.5,-180 663.5,-180 663.5,-144 781.5,-144 781.5,-180"/>
<text text-anchor="middle" x="722.5" y="-158.3" font-family="Times,serif" font-size="14.00">aws_vpc.duck&#45;vpc</text>
</g>
<!-- [root] aws_security_group.rds&#45;sg (expand)&#45;&gt;[root] aws_vpc.duck&#45;vpc (expand) -->
<g id="edge21" class="edge">
<title>[root] aws_security_group.rds&#45;sg (expand)&#45;&gt;[root] aws_vpc.duck&#45;vpc (expand)</title>
<path fill="none" stroke="black" d="M495.24,-287.96C501.72,-267.83 515.26,-234.73 538.5,-216 570.91,-189.88 615.64,-176.63 652.89,-169.91"/>
<polygon fill="black" stroke="black" points="653.89,-173.29 663.17,-168.18 652.73,-166.39 653.89,-173.29"/>
</g>
<!-- [root] var.port -->
<g id="node20" class="node">
<title>[root] var.port</title>
<polygon fill="none" stroke="black" points="485,-252 432,-252 432,-216 491,-216 491,-246 485,-252"/>
<polyline fill="none" stroke="black" points="485,-252 485,-246 "/>
<polyline fill="none" stroke="black" points="491,-246 485,-246 "/>
<text text-anchor="middle" x="461.5" y="-230.3" font-family="Times,serif" font-size="14.00">var.port</text>
</g>
<!-- [root] aws_security_group.rds&#45;sg (expand)&#45;&gt;[root] var.port -->
<g id="edge22" class="edge">
<title>[root] aws_security_group.rds&#45;sg (expand)&#45;&gt;[root] var.port</title>
<path fill="none" stroke="black" d="M483.33,-287.7C480.07,-279.81 476.13,-270.3 472.5,-261.55"/>
<polygon fill="black" stroke="black" points="475.65,-260 468.59,-252.1 469.18,-262.68 475.65,-260"/>
</g>
<!-- [root] aws_subnet.primary&#45;subnet (expand)&#45;&gt;[root] aws_vpc.duck&#45;vpc (expand) -->
<g id="edge23" class="edge">
<title>[root] aws_subnet.primary&#45;subnet (expand)&#45;&gt;[root] aws_vpc.duck&#45;vpc (expand)</title>
<path fill="none" stroke="black" d="M791.76,-215.7C780.06,-206.8 765.64,-195.82 752.99,-186.2"/>
<polygon fill="black" stroke="black" points="755.06,-183.37 744.98,-180.1 750.82,-188.94 755.06,-183.37"/>
</g>
<!-- [root] aws_subnet.standby&#45;subnet (expand)&#45;&gt;[root] aws_vpc.duck&#45;vpc (expand) -->
<g id="edge24" class="edge">
<title>[root] aws_subnet.standby&#45;subnet (expand)&#45;&gt;[root] aws_vpc.duck&#45;vpc (expand)</title>
<path fill="none" stroke="black" d="M653.24,-215.7C664.94,-206.8 679.36,-195.82 692.01,-186.2"/>
<polygon fill="black" stroke="black" points="694.18,-188.94 700.02,-180.1 689.94,-183.37 694.18,-188.94"/>
</g>
<!-- [root] aws_vpc.duck&#45;vpc (expand)&#45;&gt;[root] provider[&quot;registry.terraform.io/hashicorp/aws&quot;] -->
<g id="edge25" class="edge">
<title>[root] aws_vpc.duck&#45;vpc (expand)&#45;&gt;[root] provider[&quot;registry.terraform.io/hashicorp/aws&quot;]</title>
<path fill="none" stroke="black" d="M781.86,-147.42C833.48,-135.61 908.21,-118.52 961.87,-106.24"/>
<polygon fill="black" stroke="black" points="962.66,-109.65 971.63,-104.01 961.1,-102.83 962.66,-109.65"/>
</g>
<!-- [root] data.aws_iam_policy_document.assume_role (expand)&#45;&gt;[root] provider[&quot;registry.terraform.io/hashicorp/aws&quot;] -->
<g id="edge26" class="edge">
<title>[root] data.aws_iam_policy_document.assume_role (expand)&#45;&gt;[root] provider[&quot;registry.terraform.io/hashicorp/aws&quot;]</title>
<path fill="none" stroke="black" d="M1195.72,-143.97C1161.3,-133.06 1116.8,-118.97 1082.37,-108.06"/>
<polygon fill="black" stroke="black" points="1083.07,-104.61 1072.48,-104.93 1080.96,-111.29 1083.07,-104.61"/>
</g>
<!-- [root] data.aws_iam_policy_document.rds_proxy_policy_document (expand)&#45;&gt;[root] aws_secretsmanager_secret.rds_secret (expand) -->
<g id="edge27" class="edge">
<title>[root] data.aws_iam_policy_document.rds_proxy_policy_document (expand)&#45;&gt;[root] aws_secretsmanager_secret.rds_secret (expand)</title>
<path fill="none" stroke="black" d="M1085.71,-287.7C1076.33,-279.05 1064.82,-268.45 1054.59,-259.03"/>
<polygon fill="black" stroke="black" points="1056.8,-256.3 1047.07,-252.1 1052.05,-261.45 1056.8,-256.3"/>
</g>
<!-- [root] var.access_key -->
<g id="node16" class="node">
<title>[root] var.access_key</title>
<polygon fill="none" stroke="black" points="968.5,-36 876.5,-36 876.5,0 974.5,0 974.5,-30 968.5,-36"/>
<polyline fill="none" stroke="black" points="968.5,-36 968.5,-30 "/>
<polyline fill="none" stroke="black" points="974.5,-30 968.5,-30 "/>
<text text-anchor="middle" x="925.5" y="-14.3" font-family="Times,serif" font-size="14.00">var.access_key</text>
</g>
<!-- [root] provider[&quot;registry.terraform.io/hashicorp/aws&quot;]&#45;&gt;[root] var.access_key -->
<g id="edge31" class="edge">
<title>[root] provider[&quot;registry.terraform.io/hashicorp/aws&quot;]&#45;&gt;[root] var.access_key</title>
<path fill="none" stroke="black" d="M1005.64,-73.46C992.07,-64.24 974.6,-52.37 959.44,-42.06"/>
<polygon fill="black" stroke="black" points="961.06,-38.94 950.82,-36.21 957.13,-44.73 961.06,-38.94"/>
</g>
<!-- [root] var.region -->
<g id="node21" class="node">
<title>[root] var.region</title>
<polygon fill="none" stroke="black" points="1058,-36 993,-36 993,0 1064,0 1064,-30 1058,-36"/>
<polyline fill="none" stroke="black" points="1058,-36 1058,-30 "/>
<polyline fill="none" stroke="black" points="1064,-30 1058,-30 "/>
<text text-anchor="middle" x="1028.5" y="-14.3" font-family="Times,serif" font-size="14.00">var.region</text>
</g>
<!-- [root] provider[&quot;registry.terraform.io/hashicorp/aws&quot;]&#45;&gt;[root] var.region -->
<g id="edge32" class="edge">
<title>[root] provider[&quot;registry.terraform.io/hashicorp/aws&quot;]&#45;&gt;[root] var.region</title>
<path fill="none" stroke="black" d="M1028.5,-71.7C1028.5,-63.98 1028.5,-54.71 1028.5,-46.11"/>
<polygon fill="black" stroke="black" points="1032,-46.1 1028.5,-36.1 1025,-46.1 1032,-46.1"/>
</g>
<!-- [root] var.secret_key -->
<g id="node22" class="node">
<title>[root] var.secret_key</title>
<polygon fill="none" stroke="black" points="1171,-36 1082,-36 1082,0 1177,0 1177,-30 1171,-36"/>
<polyline fill="none" stroke="black" points="1171,-36 1171,-30 "/>
<polyline fill="none" stroke="black" points="1177,-30 1171,-30 "/>
<text text-anchor="middle" x="1129.5" y="-14.3" font-family="Times,serif" font-size="14.00">var.secret_key</text>
</g>
<!-- [root] provider[&quot;registry.terraform.io/hashicorp/aws&quot;]&#45;&gt;[root] var.secret_key -->
<g id="edge33" class="edge">
<title>[root] provider[&quot;registry.terraform.io/hashicorp/aws&quot;]&#45;&gt;[root] var.secret_key</title>
<path fill="none" stroke="black" d="M1050.92,-73.46C1064.23,-64.24 1081.36,-52.37 1096.22,-42.06"/>
<polygon fill="black" stroke="black" points="1098.44,-44.78 1104.67,-36.21 1094.45,-39.03 1098.44,-44.78"/>
</g>
<!-- [root] provider[&quot;registry.terraform.io/hashicorp/aws&quot;] (close) -->
<g id="node24" class="node">
<title>[root] provider[&quot;registry.terraform.io/hashicorp/aws&quot;] (close)</title>
<ellipse fill="none" stroke="black" cx="898.5" cy="-522" rx="227.46" ry="18"/>
<text text-anchor="middle" x="898.5" y="-518.3" font-family="Times,serif" font-size="14.00">[root] provider[&quot;registry.terraform.io/hashicorp/aws&quot;] (close)</text>
</g>
<!-- [root] provider[&quot;registry.terraform.io/hashicorp/aws&quot;] (close)&#45;&gt;[root] aws_db_proxy.rds_proxy (expand) -->
<g id="edge28" class="edge">
<title>[root] provider[&quot;registry.terraform.io/hashicorp/aws&quot;] (close)&#45;&gt;[root] aws_db_proxy.rds_proxy (expand)</title>
<path fill="none" stroke="black" d="M792.8,-505.96C769.54,-498.07 746.96,-486.1 730.5,-468 715.35,-451.33 711.18,-425.62 710.46,-406.11"/>
<polygon fill="black" stroke="black" points="713.96,-405.97 710.37,-396 706.96,-406.04 713.96,-405.97"/>
</g>
<!-- [root] provider[&quot;registry.terraform.io/hashicorp/aws&quot;] (close)&#45;&gt;[root] aws_iam_role_policy_attachment.rds_proxy_iam_attach (expand) -->
<g id="edge29" class="edge">
<title>[root] provider[&quot;registry.terraform.io/hashicorp/aws&quot;] (close)&#45;&gt;[root] aws_iam_role_policy_attachment.rds_proxy_iam_attach (expand)</title>
<path fill="none" stroke="black" d="M976.08,-505.03C1026.53,-494.64 1092.58,-481.04 1145.79,-470.09"/>
<polygon fill="black" stroke="black" points="1146.83,-473.45 1155.92,-468 1145.42,-466.59 1146.83,-473.45"/>
</g>
<!-- [root] provider[&quot;registry.terraform.io/hashicorp/aws&quot;] (close)&#45;&gt;[root] aws_secretsmanager_secret_version.rds_secret_version (expand) -->
<g id="edge30" class="edge">
<title>[root] provider[&quot;registry.terraform.io/hashicorp/aws&quot;] (close)&#45;&gt;[root] aws_secretsmanager_secret_version.rds_secret_version (expand)</title>
<path fill="none" stroke="black" d="M898.5,-503.7C898.5,-495.98 898.5,-486.71 898.5,-478.11"/>
<polygon fill="black" stroke="black" points="902,-478.1 898.5,-468.1 895,-478.1 902,-478.1"/>
</g>
<!-- [root] root -->
<g id="node25" class="node">
<title>[root] root</title>
<ellipse fill="none" stroke="black" cx="898.5" cy="-594" rx="47.39" ry="18"/>
<text text-anchor="middle" x="898.5" y="-590.3" font-family="Times,serif" font-size="14.00">[root] root</text>
</g>
<!-- [root] root&#45;&gt;[root] provider[&quot;registry.terraform.io/hashicorp/aws&quot;] (close) -->
<g id="edge34" class="edge">
<title>[root] root&#45;&gt;[root] provider[&quot;registry.terraform.io/hashicorp/aws&quot;] (close)</title>
<path fill="none" stroke="black" d="M898.5,-575.7C898.5,-567.98 898.5,-558.71 898.5,-550.11"/>
<polygon fill="black" stroke="black" points="902,-550.1 898.5,-540.1 895,-550.1 902,-550.1"/>
</g>
</g>
</svg>
