<?xml version="1.0" encoding="UTF-8" standalone="no"?>
<!DOCTYPE svg PUBLIC "-//W3C//DTD SVG 1.1//EN"
 "http://www.w3.org/Graphics/SVG/1.1/DTD/svg11.dtd">
<!-- Generated by graphviz version 5.0.0 (0)
 -->
<!-- Pages: 1 -->
<svg width="1649pt" height="692pt"
 viewBox="0.00 0.00 1648.50 692.00" xmlns="http://www.w3.org/2000/svg" xmlns:xlink="http://www.w3.org/1999/xlink">
<g id="graph0" class="graph" transform="scale(1 1) rotate(0) translate(4 688)">
<polygon fill="white" stroke="transparent" points="-4,4 -4,-688 1644.5,-688 1644.5,4 -4,4"/>
<!-- [root] aws_db_instance.database (expand) -->
<g id="node1" class="node">
<title>[root] aws_db_instance.database (expand)</title>
<polygon fill="none" stroke="black" points="701.5,-396 542.5,-396 542.5,-360 701.5,-360 701.5,-396"/>
<text text-anchor="middle" x="622" y="-374.3" font-family="Times,serif" font-size="14.00">aws_db_instance.database</text>
</g>
<!-- [root] aws_db_subnet_group.duck&#45;subnet&#45;group (expand) -->
<g id="node5" class="node">
<title>[root] aws_db_subnet_group.duck&#45;subnet&#45;group (expand)</title>
<polygon fill="none" stroke="black" points="936,-324 692,-324 692,-288 936,-288 936,-324"/>
<text text-anchor="middle" x="814" y="-302.3" font-family="Times,serif" font-size="14.00">aws_db_subnet_group.duck&#45;subnet&#45;group</text>
</g>
<!-- [root] aws_db_instance.database (expand)&#45;&gt;[root] aws_db_subnet_group.duck&#45;subnet&#45;group (expand) -->
<g id="edge1" class="edge">
<title>[root] aws_db_instance.database (expand)&#45;&gt;[root] aws_db_subnet_group.duck&#45;subnet&#45;group (expand)</title>
<path fill="none" stroke="black" d="M668.97,-359.88C695.68,-350.14 729.32,-337.87 757.47,-327.61"/>
<polygon fill="black" stroke="black" points="758.99,-330.78 767.18,-324.07 756.59,-324.21 758.99,-330.78"/>
</g>
<!-- [root] aws_security_group.rds&#45;sg (expand) -->
<g id="node15" class="node">
<title>[root] aws_security_group.rds&#45;sg (expand)</title>
<polygon fill="none" stroke="black" points="1116,-324 954,-324 954,-288 1116,-288 1116,-324"/>
<text text-anchor="middle" x="1035" y="-302.3" font-family="Times,serif" font-size="14.00">aws_security_group.rds&#45;sg</text>
</g>
<!-- [root] aws_db_instance.database (expand)&#45;&gt;[root] aws_security_group.rds&#45;sg (expand) -->
<g id="edge2" class="edge">
<title>[root] aws_db_instance.database (expand)&#45;&gt;[root] aws_security_group.rds&#45;sg (expand)</title>
<path fill="none" stroke="black" d="M701.73,-364.46C764.8,-354.42 855.35,-339.72 943.66,-324.22"/>
<polygon fill="black" stroke="black" points="944.34,-327.65 953.58,-322.47 943.13,-320.76 944.34,-327.65"/>
</g>
<!-- [root] var.db_name -->
<g id="node23" class="node">
<title>[root] var.db_name</title>
<polygon fill="none" stroke="black" points="576.5,-324 495.5,-324 495.5,-288 582.5,-288 582.5,-318 576.5,-324"/>
<polyline fill="none" stroke="black" points="576.5,-324 576.5,-318 "/>
<polyline fill="none" stroke="black" points="582.5,-318 576.5,-318 "/>
<text text-anchor="middle" x="539" y="-302.3" font-family="Times,serif" font-size="14.00">var.db_name</text>
</g>
<!-- [root] aws_db_instance.database (expand)&#45;&gt;[root] var.db_name -->
<g id="edge3" class="edge">
<title>[root] aws_db_instance.database (expand)&#45;&gt;[root] var.db_name</title>
<path fill="none" stroke="black" d="M601.48,-359.7C591.13,-350.97 578.41,-340.24 567.16,-330.75"/>
<polygon fill="black" stroke="black" points="569.18,-327.88 559.28,-324.1 564.67,-333.23 569.18,-327.88"/>
</g>
<!-- [root] var.engine -->
<g id="node24" class="node">
<title>[root] var.engine</title>
<polygon fill="none" stroke="black" points="667.5,-324 600.5,-324 600.5,-288 673.5,-288 673.5,-318 667.5,-324"/>
<polyline fill="none" stroke="black" points="667.5,-324 667.5,-318 "/>
<polyline fill="none" stroke="black" points="673.5,-318 667.5,-318 "/>
<text text-anchor="middle" x="637" y="-302.3" font-family="Times,serif" font-size="14.00">var.engine</text>
</g>
<!-- [root] aws_db_instance.database (expand)&#45;&gt;[root] var.engine -->
<g id="edge4" class="edge">
<title>[root] aws_db_instance.database (expand)&#45;&gt;[root] var.engine</title>
<path fill="none" stroke="black" d="M625.71,-359.7C627.36,-351.98 629.35,-342.71 631.19,-334.11"/>
<polygon fill="black" stroke="black" points="634.66,-334.62 633.33,-324.1 627.82,-333.15 634.66,-334.62"/>
</g>
<!-- [root] var.password -->
<g id="node25" class="node">
<title>[root] var.password</title>
<polygon fill="none" stroke="black" points="365,-324 283,-324 283,-288 371,-288 371,-318 365,-324"/>
<polyline fill="none" stroke="black" points="365,-324 365,-318 "/>
<polyline fill="none" stroke="black" points="371,-318 365,-318 "/>
<text text-anchor="middle" x="327" y="-302.3" font-family="Times,serif" font-size="14.00">var.password</text>
</g>
<!-- [root] aws_db_instance.database (expand)&#45;&gt;[root] var.password -->
<g id="edge5" class="edge">
<title>[root] aws_db_instance.database (expand)&#45;&gt;[root] var.password</title>
<path fill="none" stroke="black" d="M542.44,-361.76C497.26,-352.62 439.53,-340.1 380.95,-324.42"/>
<polygon fill="black" stroke="black" points="381.73,-321.01 371.16,-321.77 379.9,-327.76 381.73,-321.01"/>
</g>
<!-- [root] var.username -->
<g id="node29" class="node">
<title>[root] var.username</title>
<polygon fill="none" stroke="black" points="471.5,-324 388.5,-324 388.5,-288 477.5,-288 477.5,-318 471.5,-324"/>
<polyline fill="none" stroke="black" points="471.5,-324 471.5,-318 "/>
<polyline fill="none" stroke="black" points="477.5,-318 471.5,-318 "/>
<text text-anchor="middle" x="433" y="-302.3" font-family="Times,serif" font-size="14.00">var.username</text>
</g>
<!-- [root] aws_db_instance.database (expand)&#45;&gt;[root] var.username -->
<g id="edge6" class="edge">
<title>[root] aws_db_instance.database (expand)&#45;&gt;[root] var.username</title>
<path fill="none" stroke="black" d="M575.77,-359.88C549.08,-349.99 515.37,-337.51 487.41,-327.15"/>
<polygon fill="black" stroke="black" points="488.37,-323.78 477.78,-323.59 485.94,-330.34 488.37,-323.78"/>
</g>
<!-- [root] aws_db_proxy.rds_proxy (expand) -->
<g id="node2" class="node">
<title>[root] aws_db_proxy.rds_proxy (expand)</title>
<polygon fill="none" stroke="black" points="994,-396 840,-396 840,-360 994,-360 994,-396"/>
<text text-anchor="middle" x="917" y="-374.3" font-family="Times,serif" font-size="14.00">aws_db_proxy.rds_proxy</text>
</g>
<!-- [root] aws_db_proxy.rds_proxy (expand)&#45;&gt;[root] aws_db_subnet_group.duck&#45;subnet&#45;group (expand) -->
<g id="edge7" class="edge">
<title>[root] aws_db_proxy.rds_proxy (expand)&#45;&gt;[root] aws_db_subnet_group.duck&#45;subnet&#45;group (expand)</title>
<path fill="none" stroke="black" d="M891.8,-359.88C878.59,-350.89 862.21,-339.76 847.89,-330.03"/>
<polygon fill="black" stroke="black" points="849.53,-326.92 839.29,-324.19 845.6,-332.71 849.53,-326.92"/>
</g>
<!-- [root] aws_iam_role.rds_proxy_iam_role (expand) -->
<g id="node7" class="node">
<title>[root] aws_iam_role.rds_proxy_iam_role (expand)</title>
<polygon fill="none" stroke="black" points="1341.5,-324 1134.5,-324 1134.5,-288 1341.5,-288 1341.5,-324"/>
<text text-anchor="middle" x="1238" y="-302.3" font-family="Times,serif" font-size="14.00">aws_iam_role.rds_proxy_iam_role</text>
</g>
<!-- [root] aws_db_proxy.rds_proxy (expand)&#45;&gt;[root] aws_iam_role.rds_proxy_iam_role (expand) -->
<g id="edge8" class="edge">
<title>[root] aws_db_proxy.rds_proxy (expand)&#45;&gt;[root] aws_iam_role.rds_proxy_iam_role (expand)</title>
<path fill="none" stroke="black" d="M994.3,-360.14C1041.24,-349.91 1101.32,-336.81 1150.08,-326.17"/>
<polygon fill="black" stroke="black" points="1150.96,-329.56 1159.98,-324.01 1149.47,-322.72 1150.96,-329.56"/>
</g>
<!-- [root] aws_secretsmanager_secret.rds_secret (expand) -->
<g id="node13" class="node">
<title>[root] aws_secretsmanager_secret.rds_secret (expand)</title>
<polygon fill="none" stroke="black" points="1584.5,-324 1359.5,-324 1359.5,-288 1584.5,-288 1584.5,-324"/>
<text text-anchor="middle" x="1472" y="-302.3" font-family="Times,serif" font-size="14.00">aws_secretsmanager_secret.rds_secret</text>
</g>
<!-- [root] aws_db_proxy.rds_proxy (expand)&#45;&gt;[root] aws_secretsmanager_secret.rds_secret (expand) -->
<g id="edge9" class="edge">
<title>[root] aws_db_proxy.rds_proxy (expand)&#45;&gt;[root] aws_secretsmanager_secret.rds_secret (expand)</title>
<path fill="none" stroke="black" d="M994.27,-367.99C1078.9,-358.03 1218.92,-341.26 1349.14,-324.23"/>
<polygon fill="black" stroke="black" points="1349.83,-327.67 1359.3,-322.9 1348.93,-320.73 1349.83,-327.67"/>
</g>
<!-- [root] aws_db_proxy.rds_proxy (expand)&#45;&gt;[root] aws_security_group.rds&#45;sg (expand) -->
<g id="edge10" class="edge">
<title>[root] aws_db_proxy.rds_proxy (expand)&#45;&gt;[root] aws_security_group.rds&#45;sg (expand)</title>
<path fill="none" stroke="black" d="M945.87,-359.88C961.29,-350.72 980.48,-339.34 997.1,-329.48"/>
<polygon fill="black" stroke="black" points="999.21,-332.3 1006.02,-324.19 995.64,-326.28 999.21,-332.3"/>
</g>
<!-- [root] aws_db_proxy.rds_proxy (expand)&#45;&gt;[root] var.engine -->
<g id="edge11" class="edge">
<title>[root] aws_db_proxy.rds_proxy (expand)&#45;&gt;[root] var.engine</title>
<path fill="none" stroke="black" d="M839.94,-362.2C796.41,-353.22 740.93,-340.74 683.18,-323.85"/>
<polygon fill="black" stroke="black" points="684.09,-320.47 673.51,-320.99 682.11,-327.18 684.09,-320.47"/>
</g>
<!-- [root] aws_db_proxy_default_target_group.target (expand) -->
<g id="node3" class="node">
<title>[root] aws_db_proxy_default_target_group.target (expand)</title>
<polygon fill="none" stroke="black" points="880.5,-468 629.5,-468 629.5,-432 880.5,-432 880.5,-468"/>
<text text-anchor="middle" x="755" y="-446.3" font-family="Times,serif" font-size="14.00">aws_db_proxy_default_target_group.target</text>
</g>
<!-- [root] aws_db_proxy_default_target_group.target (expand)&#45;&gt;[root] aws_db_proxy.rds_proxy (expand) -->
<g id="edge12" class="edge">
<title>[root] aws_db_proxy_default_target_group.target (expand)&#45;&gt;[root] aws_db_proxy.rds_proxy (expand)</title>
<path fill="none" stroke="black" d="M794.63,-431.88C816.78,-422.31 844.56,-410.3 868.06,-400.15"/>
<polygon fill="black" stroke="black" points="869.71,-403.25 877.5,-396.07 866.93,-396.82 869.71,-403.25"/>
</g>
<!-- [root] aws_db_proxy_target.example (expand) -->
<g id="node4" class="node">
<title>[root] aws_db_proxy_target.example (expand)</title>
<polygon fill="none" stroke="black" points="770,-540 586,-540 586,-504 770,-504 770,-540"/>
<text text-anchor="middle" x="678" y="-518.3" font-family="Times,serif" font-size="14.00">aws_db_proxy_target.example</text>
</g>
<!-- [root] aws_db_proxy_target.example (expand)&#45;&gt;[root] aws_db_instance.database (expand) -->
<g id="edge13" class="edge">
<title>[root] aws_db_proxy_target.example (expand)&#45;&gt;[root] aws_db_instance.database (expand)</title>
<path fill="none" stroke="black" d="M650.66,-503.77C638.89,-494.72 626.38,-482.48 620,-468 611.45,-448.61 612.63,-424.47 615.57,-406.22"/>
<polygon fill="black" stroke="black" points="619.04,-406.71 617.45,-396.24 612.16,-405.42 619.04,-406.71"/>
</g>
<!-- [root] aws_db_proxy_target.example (expand)&#45;&gt;[root] aws_db_proxy_default_target_group.target (expand) -->
<g id="edge14" class="edge">
<title>[root] aws_db_proxy_target.example (expand)&#45;&gt;[root] aws_db_proxy_default_target_group.target (expand)</title>
<path fill="none" stroke="black" d="M697.03,-503.7C706.54,-495.05 718.21,-484.45 728.57,-475.03"/>
<polygon fill="black" stroke="black" points="731.14,-477.42 736.19,-468.1 726.43,-472.24 731.14,-477.42"/>
</g>
<!-- [root] aws_subnet.primary&#45;subnet (expand) -->
<g id="node16" class="node">
<title>[root] aws_subnet.primary&#45;subnet (expand)</title>
<polygon fill="none" stroke="black" points="897.5,-252 730.5,-252 730.5,-216 897.5,-216 897.5,-252"/>
<text text-anchor="middle" x="814" y="-230.3" font-family="Times,serif" font-size="14.00">aws_subnet.primary&#45;subnet</text>
</g>
<!-- [root] aws_db_subnet_group.duck&#45;subnet&#45;group (expand)&#45;&gt;[root] aws_subnet.primary&#45;subnet (expand) -->
<g id="edge15" class="edge">
<title>[root] aws_db_subnet_group.duck&#45;subnet&#45;group (expand)&#45;&gt;[root] aws_subnet.primary&#45;subnet (expand)</title>
<path fill="none" stroke="black" d="M814,-287.7C814,-279.98 814,-270.71 814,-262.11"/>
<polygon fill="black" stroke="black" points="817.5,-262.1 814,-252.1 810.5,-262.1 817.5,-262.1"/>
</g>
<!-- [root] aws_subnet.standby&#45;subnet (expand) -->
<g id="node17" class="node">
<title>[root] aws_subnet.standby&#45;subnet (expand)</title>
<polygon fill="none" stroke="black" points="712.5,-252 547.5,-252 547.5,-216 712.5,-216 712.5,-252"/>
<text text-anchor="middle" x="630" y="-230.3" font-family="Times,serif" font-size="14.00">aws_subnet.standby&#45;subnet</text>
</g>
<!-- [root] aws_db_subnet_group.duck&#45;subnet&#45;group (expand)&#45;&gt;[root] aws_subnet.standby&#45;subnet (expand) -->
<g id="edge16" class="edge">
<title>[root] aws_db_subnet_group.duck&#45;subnet&#45;group (expand)&#45;&gt;[root] aws_subnet.standby&#45;subnet (expand)</title>
<path fill="none" stroke="black" d="M768.99,-287.88C743.5,-278.18 711.43,-265.98 684.52,-255.74"/>
<polygon fill="black" stroke="black" points="685.46,-252.35 674.87,-252.07 682.97,-258.9 685.46,-252.35"/>
</g>
<!-- [root] aws_iam_policy.rds_proxy_iam_policy (expand) -->
<g id="node6" class="node">
<title>[root] aws_iam_policy.rds_proxy_iam_policy (expand)</title>
<polygon fill="none" stroke="black" points="1542,-468 1310,-468 1310,-432 1542,-432 1542,-468"/>
<text text-anchor="middle" x="1426" y="-446.3" font-family="Times,serif" font-size="14.00">aws_iam_policy.rds_proxy_iam_policy</text>
</g>
<!-- [root] data.aws_iam_policy_document.rds_proxy_policy_document (expand) -->
<g id="node20" class="node">
<title>[root] data.aws_iam_policy_document.rds_proxy_policy_document (expand)</title>
<polygon fill="none" stroke="black" points="1640.5,-396 1287.5,-396 1287.5,-360 1640.5,-360 1640.5,-396"/>
<text text-anchor="middle" x="1464" y="-374.3" font-family="Times,serif" font-size="14.00">data.aws_iam_policy_document.rds_proxy_policy_document</text>
</g>
<!-- [root] aws_iam_policy.rds_proxy_iam_policy (expand)&#45;&gt;[root] data.aws_iam_policy_document.rds_proxy_policy_document (expand) -->
<g id="edge17" class="edge">
<title>[root] aws_iam_policy.rds_proxy_iam_policy (expand)&#45;&gt;[root] data.aws_iam_policy_document.rds_proxy_policy_document (expand)</title>
<path fill="none" stroke="black" d="M1435.39,-431.7C1439.76,-423.64 1445.06,-413.89 1449.9,-404.98"/>
<polygon fill="black" stroke="black" points="1453.02,-406.56 1454.71,-396.1 1446.87,-403.22 1453.02,-406.56"/>
</g>
<!-- [root] data.aws_iam_policy_document.assume_role (expand) -->
<g id="node19" class="node">
<title>[root] data.aws_iam_policy_document.assume_role (expand)</title>
<polygon fill="none" stroke="black" points="1370.5,-180 1105.5,-180 1105.5,-144 1370.5,-144 1370.5,-180"/>
<text text-anchor="middle" x="1238" y="-158.3" font-family="Times,serif" font-size="14.00">data.aws_iam_policy_document.assume_role</text>
</g>
<!-- [root] aws_iam_role.rds_proxy_iam_role (expand)&#45;&gt;[root] data.aws_iam_policy_document.assume_role (expand) -->
<g id="edge18" class="edge">
<title>[root] aws_iam_role.rds_proxy_iam_role (expand)&#45;&gt;[root] data.aws_iam_policy_document.assume_role (expand)</title>
<path fill="none" stroke="black" d="M1238,-287.87C1238,-263.67 1238,-219.21 1238,-190.39"/>
<polygon fill="black" stroke="black" points="1241.5,-190.19 1238,-180.19 1234.5,-190.19 1241.5,-190.19"/>
</g>
<!-- [root] aws_iam_role_policy_attachment.rds_proxy_iam_attach (expand) -->
<g id="node8" class="node">
<title>[root] aws_iam_role_policy_attachment.rds_proxy_iam_attach (expand)</title>
<polygon fill="none" stroke="black" points="1408,-540 1082,-540 1082,-504 1408,-504 1408,-540"/>
<text text-anchor="middle" x="1245" y="-518.3" font-family="Times,serif" font-size="14.00">aws_iam_role_policy_attachment.rds_proxy_iam_attach</text>
</g>
<!-- [root] aws_iam_role_policy_attachment.rds_proxy_iam_attach (expand)&#45;&gt;[root] aws_iam_policy.rds_proxy_iam_policy (expand) -->
<g id="edge19" class="edge">
<title>[root] aws_iam_role_policy_attachment.rds_proxy_iam_attach (expand)&#45;&gt;[root] aws_iam_policy.rds_proxy_iam_policy (expand)</title>
<path fill="none" stroke="black" d="M1289.28,-503.88C1314.35,-494.18 1345.9,-481.98 1372.37,-471.74"/>
<polygon fill="black" stroke="black" points="1373.8,-474.94 1381.87,-468.07 1371.28,-468.41 1373.8,-474.94"/>
</g>
<!-- [root] aws_iam_role_policy_attachment.rds_proxy_iam_attach (expand)&#45;&gt;[root] aws_iam_role.rds_proxy_iam_role (expand) -->
<g id="edge20" class="edge">
<title>[root] aws_iam_role_policy_attachment.rds_proxy_iam_attach (expand)&#45;&gt;[root] aws_iam_role.rds_proxy_iam_role (expand)</title>
<path fill="none" stroke="black" d="M1244.44,-503.85C1243.23,-466.83 1240.36,-379.18 1238.9,-334.39"/>
<polygon fill="black" stroke="black" points="1242.39,-334.11 1238.56,-324.23 1235.39,-334.34 1242.39,-334.11"/>
</g>
<!-- [root] aws_internet_gateway.gw (expand) -->
<g id="node9" class="node">
<title>[root] aws_internet_gateway.gw (expand)</title>
<polygon fill="none" stroke="black" points="368.5,-252 211.5,-252 211.5,-216 368.5,-216 368.5,-252"/>
<text text-anchor="middle" x="290" y="-230.3" font-family="Times,serif" font-size="14.00">aws_internet_gateway.gw</text>
</g>
<!-- [root] aws_vpc.duck&#45;vpc (expand) -->
<g id="node18" class="node">
<title>[root] aws_vpc.duck&#45;vpc (expand)</title>
<polygon fill="none" stroke="black" points="873,-180 755,-180 755,-144 873,-144 873,-180"/>
<text text-anchor="middle" x="814" y="-158.3" font-family="Times,serif" font-size="14.00">aws_vpc.duck&#45;vpc</text>
</g>
<!-- [root] aws_internet_gateway.gw (expand)&#45;&gt;[root] aws_vpc.duck&#45;vpc (expand) -->
<g id="edge21" class="edge">
<title>[root] aws_internet_gateway.gw (expand)&#45;&gt;[root] aws_vpc.duck&#45;vpc (expand)</title>
<path fill="none" stroke="black" d="M368.73,-222.48C470.83,-208.84 647.32,-185.27 744.62,-172.27"/>
<polygon fill="black" stroke="black" points="745.19,-175.72 754.64,-170.93 744.27,-168.78 745.19,-175.72"/>
</g>
<!-- [root] aws_route_table.prod&#45;route&#45;table (expand) -->
<g id="node10" class="node">
<title>[root] aws_route_table.prod&#45;route&#45;table (expand)</title>
<polygon fill="none" stroke="black" points="226.5,-324 29.5,-324 29.5,-288 226.5,-288 226.5,-324"/>
<text text-anchor="middle" x="128" y="-302.3" font-family="Times,serif" font-size="14.00">aws_route_table.prod&#45;route&#45;table</text>
</g>
<!-- [root] aws_route_table.prod&#45;route&#45;table (expand)&#45;&gt;[root] aws_internet_gateway.gw (expand) -->
<g id="edge22" class="edge">
<title>[root] aws_route_table.prod&#45;route&#45;table (expand)&#45;&gt;[root] aws_internet_gateway.gw (expand)</title>
<path fill="none" stroke="black" d="M167.63,-287.88C189.78,-278.31 217.56,-266.3 241.06,-256.15"/>
<polygon fill="black" stroke="black" points="242.71,-259.25 250.5,-252.07 239.93,-252.82 242.71,-259.25"/>
</g>
<!-- [root] aws_route_table_association.a (expand) -->
<g id="node11" class="node">
<title>[root] aws_route_table_association.a (expand)</title>
<polygon fill="none" stroke="black" points="382,-396 200,-396 200,-360 382,-360 382,-396"/>
<text text-anchor="middle" x="291" y="-374.3" font-family="Times,serif" font-size="14.00">aws_route_table_association.a</text>
</g>
<!-- [root] aws_route_table_association.a (expand)&#45;&gt;[root] aws_route_table.prod&#45;route&#45;table (expand) -->
<g id="edge23" class="edge">
<title>[root] aws_route_table_association.a (expand)&#45;&gt;[root] aws_route_table.prod&#45;route&#45;table (expand)</title>
<path fill="none" stroke="black" d="M251.13,-359.88C228.84,-350.31 200.88,-338.3 177.24,-328.15"/>
<polygon fill="black" stroke="black" points="178.31,-324.8 167.74,-324.07 175.55,-331.23 178.31,-324.8"/>
</g>
<!-- [root] aws_route_table_association.a (expand)&#45;&gt;[root] aws_subnet.primary&#45;subnet (expand) -->
<g id="edge24" class="edge">
<title>[root] aws_route_table_association.a (expand)&#45;&gt;[root] aws_subnet.primary&#45;subnet (expand)</title>
<path fill="none" stroke="black" d="M280.2,-359.92C269.16,-340.07 255.97,-307.54 274,-288 306.21,-253.1 638.21,-257.92 720.2,-251.69"/>
<polygon fill="black" stroke="black" points="720.8,-255.15 730.41,-250.69 720.12,-248.18 720.8,-255.15"/>
</g>
<!-- [root] aws_route_table_association.b (expand) -->
<g id="node12" class="node">
<title>[root] aws_route_table_association.b (expand)</title>
<polygon fill="none" stroke="black" points="182,-396 0,-396 0,-360 182,-360 182,-396"/>
<text text-anchor="middle" x="91" y="-374.3" font-family="Times,serif" font-size="14.00">aws_route_table_association.b</text>
</g>
<!-- [root] aws_route_table_association.b (expand)&#45;&gt;[root] aws_route_table.prod&#45;route&#45;table (expand) -->
<g id="edge25" class="edge">
<title>[root] aws_route_table_association.b (expand)&#45;&gt;[root] aws_route_table.prod&#45;route&#45;table (expand)</title>
<path fill="none" stroke="black" d="M100.15,-359.7C104.4,-351.64 109.56,-341.89 114.27,-332.98"/>
<polygon fill="black" stroke="black" points="117.38,-334.58 118.96,-324.1 111.19,-331.31 117.38,-334.58"/>
</g>
<!-- [root] aws_route_table_association.b (expand)&#45;&gt;[root] aws_subnet.standby&#45;subnet (expand) -->
<g id="edge26" class="edge">
<title>[root] aws_route_table_association.b (expand)&#45;&gt;[root] aws_subnet.standby&#45;subnet (expand)</title>
<path fill="none" stroke="black" d="M55.83,-359.94C42.02,-351.25 27.65,-339.26 20,-324 12.83,-309.7 9.19,-299.79 20,-288 28.64,-278.58 368.57,-253.4 537.15,-241.46"/>
<polygon fill="black" stroke="black" points="537.53,-244.94 547.26,-240.74 537.04,-237.96 537.53,-244.94"/>
</g>
<!-- [root] provider[&quot;registry.terraform.io/hashicorp/aws&quot;] -->
<g id="node21" class="node">
<title>[root] provider[&quot;registry.terraform.io/hashicorp/aws&quot;]</title>
<polygon fill="none" stroke="black" points="1238,-108 985.46,-90 1238,-72 1490.54,-90 1238,-108"/>
<text text-anchor="middle" x="1238" y="-86.3" font-family="Times,serif" font-size="14.00">provider[&quot;registry.terraform.io/hashicorp/aws&quot;]</text>
</g>
<!-- [root] aws_secretsmanager_secret.rds_secret (expand)&#45;&gt;[root] provider[&quot;registry.terraform.io/hashicorp/aws&quot;] -->
<g id="edge27" class="edge">
<title>[root] aws_secretsmanager_secret.rds_secret (expand)&#45;&gt;[root] provider[&quot;registry.terraform.io/hashicorp/aws&quot;]</title>
<path fill="none" stroke="black" d="M1466.63,-287.86C1455.59,-255.31 1427.34,-184.24 1380,-144 1359.64,-126.7 1333.1,-114.79 1308.48,-106.71"/>
<polygon fill="black" stroke="black" points="1309.38,-103.32 1298.79,-103.69 1307.3,-110.01 1309.38,-103.32"/>
</g>
<!-- [root] aws_secretsmanager_secret_version.rds_secret_version (expand) -->
<g id="node14" class="node">
<title>[root] aws_secretsmanager_secret_version.rds_secret_version (expand)</title>
<polygon fill="none" stroke="black" points="1217,-468 899,-468 899,-432 1217,-432 1217,-468"/>
<text text-anchor="middle" x="1058" y="-446.3" font-family="Times,serif" font-size="14.00">aws_secretsmanager_secret_version.rds_secret_version</text>
</g>
<!-- [root] aws_secretsmanager_secret_version.rds_secret_version (expand)&#45;&gt;[root] aws_db_instance.database (expand) -->
<g id="edge28" class="edge">
<title>[root] aws_secretsmanager_secret_version.rds_secret_version (expand)&#45;&gt;[root] aws_db_instance.database (expand)</title>
<path fill="none" stroke="black" d="M951.9,-431.97C878.38,-420.16 781.57,-404.62 711.86,-393.43"/>
<polygon fill="black" stroke="black" points="712.21,-389.94 701.78,-391.81 711.1,-396.85 712.21,-389.94"/>
</g>
<!-- [root] aws_secretsmanager_secret_version.rds_secret_version (expand)&#45;&gt;[root] aws_secretsmanager_secret.rds_secret (expand) -->
<g id="edge29" class="edge">
<title>[root] aws_secretsmanager_secret_version.rds_secret_version (expand)&#45;&gt;[root] aws_secretsmanager_secret.rds_secret (expand)</title>
<path fill="none" stroke="black" d="M1096.43,-431.85C1139.93,-412.8 1213.2,-381.87 1278,-360 1315.04,-347.5 1356.79,-335.79 1392.05,-326.58"/>
<polygon fill="black" stroke="black" points="1393.01,-329.94 1401.81,-324.05 1391.25,-323.17 1393.01,-329.94"/>
</g>
<!-- [root] aws_security_group.rds&#45;sg (expand)&#45;&gt;[root] aws_vpc.duck&#45;vpc (expand) -->
<g id="edge30" class="edge">
<title>[root] aws_security_group.rds&#45;sg (expand)&#45;&gt;[root] aws_vpc.duck&#45;vpc (expand)</title>
<path fill="none" stroke="black" d="M1011.14,-287.67C985.54,-269.29 943.5,-239.68 906,-216 889.17,-205.37 870.16,-194.28 853.82,-185"/>
<polygon fill="black" stroke="black" points="855.47,-181.91 845.04,-180.05 852.03,-188.01 855.47,-181.91"/>
</g>
<!-- [root] var.port -->
<g id="node26" class="node">
<title>[root] var.port</title>
<polygon fill="none" stroke="black" points="1058.5,-252 1005.5,-252 1005.5,-216 1064.5,-216 1064.5,-246 1058.5,-252"/>
<polyline fill="none" stroke="black" points="1058.5,-252 1058.5,-246 "/>
<polyline fill="none" stroke="black" points="1064.5,-246 1058.5,-246 "/>
<text text-anchor="middle" x="1035" y="-230.3" font-family="Times,serif" font-size="14.00">var.port</text>
</g>
<!-- [root] aws_security_group.rds&#45;sg (expand)&#45;&gt;[root] var.port -->
<g id="edge31" class="edge">
<title>[root] aws_security_group.rds&#45;sg (expand)&#45;&gt;[root] var.port</title>
<path fill="none" stroke="black" d="M1035,-287.7C1035,-279.98 1035,-270.71 1035,-262.11"/>
<polygon fill="black" stroke="black" points="1038.5,-262.1 1035,-252.1 1031.5,-262.1 1038.5,-262.1"/>
</g>
<!-- [root] aws_subnet.primary&#45;subnet (expand)&#45;&gt;[root] aws_vpc.duck&#45;vpc (expand) -->
<g id="edge32" class="edge">
<title>[root] aws_subnet.primary&#45;subnet (expand)&#45;&gt;[root] aws_vpc.duck&#45;vpc (expand)</title>
<path fill="none" stroke="black" d="M814,-215.7C814,-207.98 814,-198.71 814,-190.11"/>
<polygon fill="black" stroke="black" points="817.5,-190.1 814,-180.1 810.5,-190.1 817.5,-190.1"/>
</g>
<!-- [root] aws_subnet.standby&#45;subnet (expand)&#45;&gt;[root] aws_vpc.duck&#45;vpc (expand) -->
<g id="edge33" class="edge">
<title>[root] aws_subnet.standby&#45;subnet (expand)&#45;&gt;[root] aws_vpc.duck&#45;vpc (expand)</title>
<path fill="none" stroke="black" d="M675.01,-215.88C700.5,-206.18 732.57,-193.98 759.48,-183.74"/>
<polygon fill="black" stroke="black" points="761.03,-186.9 769.13,-180.07 758.54,-180.35 761.03,-186.9"/>
</g>
<!-- [root] aws_vpc.duck&#45;vpc (expand)&#45;&gt;[root] provider[&quot;registry.terraform.io/hashicorp/aws&quot;] -->
<g id="edge34" class="edge">
<title>[root] aws_vpc.duck&#45;vpc (expand)&#45;&gt;[root] provider[&quot;registry.terraform.io/hashicorp/aws&quot;]</title>
<path fill="none" stroke="black" d="M873.4,-151.19C947.1,-139.03 1073.13,-118.22 1156,-104.54"/>
<polygon fill="black" stroke="black" points="1156.59,-107.99 1165.89,-102.91 1155.45,-101.08 1156.59,-107.99"/>
</g>
<!-- [root] data.aws_iam_policy_document.assume_role (expand)&#45;&gt;[root] provider[&quot;registry.terraform.io/hashicorp/aws&quot;] -->
<g id="edge35" class="edge">
<title>[root] data.aws_iam_policy_document.assume_role (expand)&#45;&gt;[root] provider[&quot;registry.terraform.io/hashicorp/aws&quot;]</title>
<path fill="none" stroke="black" d="M1238,-143.7C1238,-135.98 1238,-126.71 1238,-118.11"/>
<polygon fill="black" stroke="black" points="1241.5,-118.1 1238,-108.1 1234.5,-118.1 1241.5,-118.1"/>
</g>
<!-- [root] data.aws_iam_policy_document.rds_proxy_policy_document (expand)&#45;&gt;[root] aws_secretsmanager_secret.rds_secret (expand) -->
<g id="edge36" class="edge">
<title>[root] data.aws_iam_policy_document.rds_proxy_policy_document (expand)&#45;&gt;[root] aws_secretsmanager_secret.rds_secret (expand)</title>
<path fill="none" stroke="black" d="M1465.98,-359.7C1466.86,-351.98 1467.92,-342.71 1468.9,-334.11"/>
<polygon fill="black" stroke="black" points="1472.39,-334.44 1470.05,-324.1 1465.43,-333.64 1472.39,-334.44"/>
</g>
<!-- [root] var.access_key -->
<g id="node22" class="node">
<title>[root] var.access_key</title>
<polygon fill="none" stroke="black" points="1178,-36 1086,-36 1086,0 1184,0 1184,-30 1178,-36"/>
<polyline fill="none" stroke="black" points="1178,-36 1178,-30 "/>
<polyline fill="none" stroke="black" points="1184,-30 1178,-30 "/>
<text text-anchor="middle" x="1135" y="-14.3" font-family="Times,serif" font-size="14.00">var.access_key</text>
</g>
<!-- [root] provider[&quot;registry.terraform.io/hashicorp/aws&quot;]&#45;&gt;[root] var.access_key -->
<g id="edge42" class="edge">
<title>[root] provider[&quot;registry.terraform.io/hashicorp/aws&quot;]&#45;&gt;[root] var.access_key</title>
<path fill="none" stroke="black" d="M1215.14,-73.46C1201.57,-64.24 1184.1,-52.37 1168.94,-42.06"/>
<polygon fill="black" stroke="black" points="1170.56,-38.94 1160.32,-36.21 1166.63,-44.73 1170.56,-38.94"/>
</g>
<!-- [root] var.region -->
<g id="node27" class="node">
<title>[root] var.region</title>
<polygon fill="none" stroke="black" points="1267.5,-36 1202.5,-36 1202.5,0 1273.5,0 1273.5,-30 1267.5,-36"/>
<polyline fill="none" stroke="black" points="1267.5,-36 1267.5,-30 "/>
<polyline fill="none" stroke="black" points="1273.5,-30 1267.5,-30 "/>
<text text-anchor="middle" x="1238" y="-14.3" font-family="Times,serif" font-size="14.00">var.region</text>
</g>
<!-- [root] provider[&quot;registry.terraform.io/hashicorp/aws&quot;]&#45;&gt;[root] var.region -->
<g id="edge43" class="edge">
<title>[root] provider[&quot;registry.terraform.io/hashicorp/aws&quot;]&#45;&gt;[root] var.region</title>
<path fill="none" stroke="black" d="M1238,-71.7C1238,-63.98 1238,-54.71 1238,-46.11"/>
<polygon fill="black" stroke="black" points="1241.5,-46.1 1238,-36.1 1234.5,-46.1 1241.5,-46.1"/>
</g>
<!-- [root] var.secret_key -->
<g id="node28" class="node">
<title>[root] var.secret_key</title>
<polygon fill="none" stroke="black" points="1380.5,-36 1291.5,-36 1291.5,0 1386.5,0 1386.5,-30 1380.5,-36"/>
<polyline fill="none" stroke="black" points="1380.5,-36 1380.5,-30 "/>
<polyline fill="none" stroke="black" points="1386.5,-30 1380.5,-30 "/>
<text text-anchor="middle" x="1339" y="-14.3" font-family="Times,serif" font-size="14.00">var.secret_key</text>
</g>
<!-- [root] provider[&quot;registry.terraform.io/hashicorp/aws&quot;]&#45;&gt;[root] var.secret_key -->
<g id="edge44" class="edge">
<title>[root] provider[&quot;registry.terraform.io/hashicorp/aws&quot;]&#45;&gt;[root] var.secret_key</title>
<path fill="none" stroke="black" d="M1260.42,-73.46C1273.73,-64.24 1290.86,-52.37 1305.72,-42.06"/>
<polygon fill="black" stroke="black" points="1307.94,-44.78 1314.17,-36.21 1303.95,-39.03 1307.94,-44.78"/>
</g>
<!-- [root] provider[&quot;registry.terraform.io/hashicorp/aws&quot;] (close) -->
<g id="node30" class="node">
<title>[root] provider[&quot;registry.terraform.io/hashicorp/aws&quot;] (close)</title>
<ellipse fill="none" stroke="black" cx="678" cy="-594" rx="227.46" ry="18"/>
<text text-anchor="middle" x="678" y="-590.3" font-family="Times,serif" font-size="14.00">[root] provider[&quot;registry.terraform.io/hashicorp/aws&quot;] (close)</text>
</g>
<!-- [root] provider[&quot;registry.terraform.io/hashicorp/aws&quot;] (close)&#45;&gt;[root] aws_db_proxy_target.example (expand) -->
<g id="edge37" class="edge">
<title>[root] provider[&quot;registry.terraform.io/hashicorp/aws&quot;] (close)&#45;&gt;[root] aws_db_proxy_target.example (expand)</title>
<path fill="none" stroke="black" d="M678,-575.7C678,-567.98 678,-558.71 678,-550.11"/>
<polygon fill="black" stroke="black" points="681.5,-550.1 678,-540.1 674.5,-550.1 681.5,-550.1"/>
</g>
<!-- [root] provider[&quot;registry.terraform.io/hashicorp/aws&quot;] (close)&#45;&gt;[root] aws_iam_role_policy_attachment.rds_proxy_iam_attach (expand) -->
<g id="edge38" class="edge">
<title>[root] provider[&quot;registry.terraform.io/hashicorp/aws&quot;] (close)&#45;&gt;[root] aws_iam_role_policy_attachment.rds_proxy_iam_attach (expand)</title>
<path fill="none" stroke="black" d="M795.14,-578.54C882.67,-567.73 1002.93,-552.88 1097.09,-541.26"/>
<polygon fill="black" stroke="black" points="1097.78,-544.7 1107.28,-540 1096.93,-537.75 1097.78,-544.7"/>
</g>
<!-- [root] provider[&quot;registry.terraform.io/hashicorp/aws&quot;] (close)&#45;&gt;[root] aws_route_table_association.a (expand) -->
<g id="edge39" class="edge">
<title>[root] provider[&quot;registry.terraform.io/hashicorp/aws&quot;] (close)&#45;&gt;[root] aws_route_table_association.a (expand)</title>
<path fill="none" stroke="black" d="M645.12,-576.06C625.31,-565.77 599.62,-552.3 577,-540 487.85,-491.53 384.33,-432.58 329.58,-401.19"/>
<polygon fill="black" stroke="black" points="331.31,-398.15 320.9,-396.21 327.83,-404.23 331.31,-398.15"/>
</g>
<!-- [root] provider[&quot;registry.terraform.io/hashicorp/aws&quot;] (close)&#45;&gt;[root] aws_route_table_association.b (expand) -->
<g id="edge40" class="edge">
<title>[root] provider[&quot;registry.terraform.io/hashicorp/aws&quot;] (close)&#45;&gt;[root] aws_route_table_association.b (expand)</title>
<path fill="none" stroke="black" d="M623.54,-576.46C591.02,-566.37 548.97,-552.96 512,-540 377.8,-492.96 221.98,-431.57 142.86,-399.91"/>
<polygon fill="black" stroke="black" points="143.72,-396.49 133.14,-396.02 141.12,-402.99 143.72,-396.49"/>
</g>
<!-- [root] provider[&quot;registry.terraform.io/hashicorp/aws&quot;] (close)&#45;&gt;[root] aws_secretsmanager_secret_version.rds_secret_version (expand) -->
<g id="edge41" class="edge">
<title>[root] provider[&quot;registry.terraform.io/hashicorp/aws&quot;] (close)&#45;&gt;[root] aws_secretsmanager_secret_version.rds_secret_version (expand)</title>
<path fill="none" stroke="black" d="M722.71,-576.29C792.51,-550.21 927.21,-499.88 1002.9,-471.59"/>
<polygon fill="black" stroke="black" points="1004.14,-474.86 1012.28,-468.08 1001.69,-468.31 1004.14,-474.86"/>
</g>
<!-- [root] root -->
<g id="node31" class="node">
<title>[root] root</title>
<ellipse fill="none" stroke="black" cx="678" cy="-666" rx="47.39" ry="18"/>
<text text-anchor="middle" x="678" y="-662.3" font-family="Times,serif" font-size="14.00">[root] root</text>
</g>
<!-- [root] root&#45;&gt;[root] provider[&quot;registry.terraform.io/hashicorp/aws&quot;] (close) -->
<g id="edge45" class="edge">
<title>[root] root&#45;&gt;[root] provider[&quot;registry.terraform.io/hashicorp/aws&quot;] (close)</title>
<path fill="none" stroke="black" d="M678,-647.7C678,-639.98 678,-630.71 678,-622.11"/>
<polygon fill="black" stroke="black" points="681.5,-622.1 678,-612.1 674.5,-622.1 681.5,-622.1"/>
</g>
</g>
</svg>
