<?xml version="1.0" encoding="UTF-8" standalone="no"?>
<!DOCTYPE svg PUBLIC "-//W3C//DTD SVG 1.1//EN"
 "http://www.w3.org/Graphics/SVG/1.1/DTD/svg11.dtd">
<!-- Generated by graphviz version 5.0.0 (0)
 -->
<!-- Pages: 1 -->
<svg width="1377pt" height="692pt"
 viewBox="0.00 0.00 1376.50 692.00" xmlns="http://www.w3.org/2000/svg" xmlns:xlink="http://www.w3.org/1999/xlink">
<g id="graph0" class="graph" transform="scale(1 1) rotate(0) translate(4 688)">
<polygon fill="white" stroke="transparent" points="-4,4 -4,-688 1372.5,-688 1372.5,4 -4,4"/>
<!-- [root] aws_db_instance.database (expand) -->
<g id="node1" class="node">
<title>[root] aws_db_instance.database (expand)</title>
<polygon fill="none" stroke="black" points="429.5,-396 270.5,-396 270.5,-360 429.5,-360 429.5,-396"/>
<text text-anchor="middle" x="350" y="-374.3" font-family="Times,serif" font-size="14.00">aws_db_instance.database</text>
</g>
<!-- [root] aws_db_subnet_group.duck&#45;subnet&#45;group (expand) -->
<g id="node5" class="node">
<title>[root] aws_db_subnet_group.duck&#45;subnet&#45;group (expand)</title>
<polygon fill="none" stroke="black" points="653,-324 409,-324 409,-288 653,-288 653,-324"/>
<text text-anchor="middle" x="531" y="-302.3" font-family="Times,serif" font-size="14.00">aws_db_subnet_group.duck&#45;subnet&#45;group</text>
</g>
<!-- [root] aws_db_instance.database (expand)&#45;&gt;[root] aws_db_subnet_group.duck&#45;subnet&#45;group (expand) -->
<g id="edge1" class="edge">
<title>[root] aws_db_instance.database (expand)&#45;&gt;[root] aws_db_subnet_group.duck&#45;subnet&#45;group (expand)</title>
<path fill="none" stroke="black" d="M394.28,-359.88C419.35,-350.18 450.9,-337.98 477.37,-327.74"/>
<polygon fill="black" stroke="black" points="478.8,-330.94 486.87,-324.07 476.28,-324.41 478.8,-330.94"/>
</g>
<!-- [root] aws_security_group.rds&#45;sg (expand) -->
<g id="node11" class="node">
<title>[root] aws_security_group.rds&#45;sg (expand)</title>
<polygon fill="none" stroke="black" points="833,-324 671,-324 671,-288 833,-288 833,-324"/>
<text text-anchor="middle" x="752" y="-302.3" font-family="Times,serif" font-size="14.00">aws_security_group.rds&#45;sg</text>
</g>
<!-- [root] aws_db_instance.database (expand)&#45;&gt;[root] aws_security_group.rds&#45;sg (expand) -->
<g id="edge2" class="edge">
<title>[root] aws_db_instance.database (expand)&#45;&gt;[root] aws_security_group.rds&#45;sg (expand)</title>
<path fill="none" stroke="black" d="M429.58,-363.9C490.26,-353.81 576.2,-339.32 660.57,-324.24"/>
<polygon fill="black" stroke="black" points="661.35,-327.66 670.58,-322.45 660.12,-320.77 661.35,-327.66"/>
</g>
<!-- [root] var.db_name -->
<g id="node19" class="node">
<title>[root] var.db_name</title>
<polygon fill="none" stroke="black" points="293.5,-324 212.5,-324 212.5,-288 299.5,-288 299.5,-318 293.5,-324"/>
<polyline fill="none" stroke="black" points="293.5,-324 293.5,-318 "/>
<polyline fill="none" stroke="black" points="299.5,-318 293.5,-318 "/>
<text text-anchor="middle" x="256" y="-302.3" font-family="Times,serif" font-size="14.00">var.db_name</text>
</g>
<!-- [root] aws_db_instance.database (expand)&#45;&gt;[root] var.db_name -->
<g id="edge3" class="edge">
<title>[root] aws_db_instance.database (expand)&#45;&gt;[root] var.db_name</title>
<path fill="none" stroke="black" d="M326.76,-359.7C314.81,-350.8 300.08,-339.82 287.15,-330.2"/>
<polygon fill="black" stroke="black" points="289.08,-327.27 278.97,-324.1 284.9,-332.88 289.08,-327.27"/>
</g>
<!-- [root] var.engine -->
<g id="node20" class="node">
<title>[root] var.engine</title>
<polygon fill="none" stroke="black" points="384.5,-324 317.5,-324 317.5,-288 390.5,-288 390.5,-318 384.5,-324"/>
<polyline fill="none" stroke="black" points="384.5,-324 384.5,-318 "/>
<polyline fill="none" stroke="black" points="390.5,-318 384.5,-318 "/>
<text text-anchor="middle" x="354" y="-302.3" font-family="Times,serif" font-size="14.00">var.engine</text>
</g>
<!-- [root] aws_db_instance.database (expand)&#45;&gt;[root] var.engine -->
<g id="edge4" class="edge">
<title>[root] aws_db_instance.database (expand)&#45;&gt;[root] var.engine</title>
<path fill="none" stroke="black" d="M350.99,-359.7C351.43,-351.98 351.96,-342.71 352.45,-334.11"/>
<polygon fill="black" stroke="black" points="355.95,-334.29 353.02,-324.1 348.96,-333.89 355.95,-334.29"/>
</g>
<!-- [root] var.password -->
<g id="node21" class="node">
<title>[root] var.password</title>
<polygon fill="none" stroke="black" points="82,-324 0,-324 0,-288 88,-288 88,-318 82,-324"/>
<polyline fill="none" stroke="black" points="82,-324 82,-318 "/>
<polyline fill="none" stroke="black" points="88,-318 82,-318 "/>
<text text-anchor="middle" x="44" y="-302.3" font-family="Times,serif" font-size="14.00">var.password</text>
</g>
<!-- [root] aws_db_instance.database (expand)&#45;&gt;[root] var.password -->
<g id="edge5" class="edge">
<title>[root] aws_db_instance.database (expand)&#45;&gt;[root] var.password</title>
<path fill="none" stroke="black" d="M270.24,-362.7C222.49,-353.59 160.46,-340.8 98.15,-324.46"/>
<polygon fill="black" stroke="black" points="98.72,-320.98 88.16,-321.8 96.92,-327.75 98.72,-320.98"/>
</g>
<!-- [root] var.username -->
<g id="node25" class="node">
<title>[root] var.username</title>
<polygon fill="none" stroke="black" points="188.5,-324 105.5,-324 105.5,-288 194.5,-288 194.5,-318 188.5,-324"/>
<polyline fill="none" stroke="black" points="188.5,-324 188.5,-318 "/>
<polyline fill="none" stroke="black" points="194.5,-318 188.5,-318 "/>
<text text-anchor="middle" x="150" y="-302.3" font-family="Times,serif" font-size="14.00">var.username</text>
</g>
<!-- [root] aws_db_instance.database (expand)&#45;&gt;[root] var.username -->
<g id="edge6" class="edge">
<title>[root] aws_db_instance.database (expand)&#45;&gt;[root] var.username</title>
<path fill="none" stroke="black" d="M301.33,-359.97C272.01,-349.7 234.62,-336.62 204.34,-326.02"/>
<polygon fill="black" stroke="black" points="205.37,-322.67 194.78,-322.67 203.06,-329.28 205.37,-322.67"/>
</g>
<!-- [root] aws_db_proxy.rds_proxy (expand) -->
<g id="node2" class="node">
<title>[root] aws_db_proxy.rds_proxy (expand)</title>
<polygon fill="none" stroke="black" points="718,-396 564,-396 564,-360 718,-360 718,-396"/>
<text text-anchor="middle" x="641" y="-374.3" font-family="Times,serif" font-size="14.00">aws_db_proxy.rds_proxy</text>
</g>
<!-- [root] aws_db_proxy.rds_proxy (expand)&#45;&gt;[root] aws_db_subnet_group.duck&#45;subnet&#45;group (expand) -->
<g id="edge7" class="edge">
<title>[root] aws_db_proxy.rds_proxy (expand)&#45;&gt;[root] aws_db_subnet_group.duck&#45;subnet&#45;group (expand)</title>
<path fill="none" stroke="black" d="M614.09,-359.88C599.84,-350.81 582.15,-339.55 566.76,-329.76"/>
<polygon fill="black" stroke="black" points="568.33,-326.61 558.01,-324.19 564.57,-332.51 568.33,-326.61"/>
</g>
<!-- [root] aws_iam_role.rds_proxy_iam_role (expand) -->
<g id="node7" class="node">
<title>[root] aws_iam_role.rds_proxy_iam_role (expand)</title>
<polygon fill="none" stroke="black" points="1058.5,-324 851.5,-324 851.5,-288 1058.5,-288 1058.5,-324"/>
<text text-anchor="middle" x="955" y="-302.3" font-family="Times,serif" font-size="14.00">aws_iam_role.rds_proxy_iam_role</text>
</g>
<!-- [root] aws_db_proxy.rds_proxy (expand)&#45;&gt;[root] aws_iam_role.rds_proxy_iam_role (expand) -->
<g id="edge8" class="edge">
<title>[root] aws_db_proxy.rds_proxy (expand)&#45;&gt;[root] aws_iam_role.rds_proxy_iam_role (expand)</title>
<path fill="none" stroke="black" d="M717.41,-359.97C763.09,-349.78 821.24,-336.82 868.59,-326.26"/>
<polygon fill="black" stroke="black" points="869.52,-329.64 878.52,-324.05 868,-322.81 869.52,-329.64"/>
</g>
<!-- [root] aws_secretsmanager_secret.rds_secret (expand) -->
<g id="node9" class="node">
<title>[root] aws_secretsmanager_secret.rds_secret (expand)</title>
<polygon fill="none" stroke="black" points="1301.5,-324 1076.5,-324 1076.5,-288 1301.5,-288 1301.5,-324"/>
<text text-anchor="middle" x="1189" y="-302.3" font-family="Times,serif" font-size="14.00">aws_secretsmanager_secret.rds_secret</text>
</g>
<!-- [root] aws_db_proxy.rds_proxy (expand)&#45;&gt;[root] aws_secretsmanager_secret.rds_secret (expand) -->
<g id="edge9" class="edge">
<title>[root] aws_db_proxy.rds_proxy (expand)&#45;&gt;[root] aws_secretsmanager_secret.rds_secret (expand)</title>
<path fill="none" stroke="black" d="M718.19,-367.8C801.57,-357.77 938.63,-341.04 1066.33,-324.21"/>
<polygon fill="black" stroke="black" points="1066.84,-327.67 1076.29,-322.9 1065.92,-320.73 1066.84,-327.67"/>
</g>
<!-- [root] aws_db_proxy.rds_proxy (expand)&#45;&gt;[root] aws_security_group.rds&#45;sg (expand) -->
<g id="edge10" class="edge">
<title>[root] aws_db_proxy.rds_proxy (expand)&#45;&gt;[root] aws_security_group.rds&#45;sg (expand)</title>
<path fill="none" stroke="black" d="M668.15,-359.88C682.53,-350.81 700.38,-339.55 715.91,-329.76"/>
<polygon fill="black" stroke="black" points="718.15,-332.48 724.74,-324.19 714.42,-326.56 718.15,-332.48"/>
</g>
<!-- [root] aws_db_proxy.rds_proxy (expand)&#45;&gt;[root] var.engine -->
<g id="edge11" class="edge">
<title>[root] aws_db_proxy.rds_proxy (expand)&#45;&gt;[root] var.engine</title>
<path fill="none" stroke="black" d="M563.8,-362.83C518.59,-353.88 460.33,-341.22 400.18,-323.84"/>
<polygon fill="black" stroke="black" points="401.09,-320.46 390.51,-321.01 399.12,-327.18 401.09,-320.46"/>
</g>
<!-- [root] aws_db_proxy_default_target_group.target (expand) -->
<g id="node3" class="node">
<title>[root] aws_db_proxy_default_target_group.target (expand)</title>
<polygon fill="none" stroke="black" points="622.5,-468 371.5,-468 371.5,-432 622.5,-432 622.5,-468"/>
<text text-anchor="middle" x="497" y="-446.3" font-family="Times,serif" font-size="14.00">aws_db_proxy_default_target_group.target</text>
</g>
<!-- [root] aws_db_proxy_default_target_group.target (expand)&#45;&gt;[root] aws_db_proxy.rds_proxy (expand) -->
<g id="edge12" class="edge">
<title>[root] aws_db_proxy_default_target_group.target (expand)&#45;&gt;[root] aws_db_proxy.rds_proxy (expand)</title>
<path fill="none" stroke="black" d="M532.23,-431.88C551.58,-422.47 575.77,-410.71 596.43,-400.67"/>
<polygon fill="black" stroke="black" points="598.17,-403.71 605.64,-396.19 595.11,-397.41 598.17,-403.71"/>
</g>
<!-- [root] aws_db_proxy_target.example (expand) -->
<g id="node4" class="node">
<title>[root] aws_db_proxy_target.example (expand)</title>
<polygon fill="none" stroke="black" points="589,-540 405,-540 405,-504 589,-504 589,-540"/>
<text text-anchor="middle" x="497" y="-518.3" font-family="Times,serif" font-size="14.00">aws_db_proxy_target.example</text>
</g>
<!-- [root] aws_db_proxy_target.example (expand)&#45;&gt;[root] aws_db_instance.database (expand) -->
<g id="edge13" class="edge">
<title>[root] aws_db_proxy_target.example (expand)&#45;&gt;[root] aws_db_instance.database (expand)</title>
<path fill="none" stroke="black" d="M415.18,-503.97C395.41,-496.12 376.2,-484.67 363,-468 349.33,-450.73 346.78,-425.46 347.24,-406.25"/>
<polygon fill="black" stroke="black" points="350.75,-406.2 347.78,-396.03 343.76,-405.83 350.75,-406.2"/>
</g>
<!-- [root] aws_db_proxy_target.example (expand)&#45;&gt;[root] aws_db_proxy_default_target_group.target (expand) -->
<g id="edge14" class="edge">
<title>[root] aws_db_proxy_target.example (expand)&#45;&gt;[root] aws_db_proxy_default_target_group.target (expand)</title>
<path fill="none" stroke="black" d="M497,-503.7C497,-495.98 497,-486.71 497,-478.11"/>
<polygon fill="black" stroke="black" points="500.5,-478.1 497,-468.1 493.5,-478.1 500.5,-478.1"/>
</g>
<!-- [root] aws_subnet.primary&#45;subnet (expand) -->
<g id="node12" class="node">
<title>[root] aws_subnet.primary&#45;subnet (expand)</title>
<polygon fill="none" stroke="black" points="704.5,-252 537.5,-252 537.5,-216 704.5,-216 704.5,-252"/>
<text text-anchor="middle" x="621" y="-230.3" font-family="Times,serif" font-size="14.00">aws_subnet.primary&#45;subnet</text>
</g>
<!-- [root] aws_db_subnet_group.duck&#45;subnet&#45;group (expand)&#45;&gt;[root] aws_subnet.primary&#45;subnet (expand) -->
<g id="edge15" class="edge">
<title>[root] aws_db_subnet_group.duck&#45;subnet&#45;group (expand)&#45;&gt;[root] aws_subnet.primary&#45;subnet (expand)</title>
<path fill="none" stroke="black" d="M553.25,-287.7C564.58,-278.88 578.53,-268.03 590.82,-258.47"/>
<polygon fill="black" stroke="black" points="593.26,-261.01 599.01,-252.1 588.97,-255.48 593.26,-261.01"/>
</g>
<!-- [root] aws_subnet.standby&#45;subnet (expand) -->
<g id="node13" class="node">
<title>[root] aws_subnet.standby&#45;subnet (expand)</title>
<polygon fill="none" stroke="black" points="519.5,-252 354.5,-252 354.5,-216 519.5,-216 519.5,-252"/>
<text text-anchor="middle" x="437" y="-230.3" font-family="Times,serif" font-size="14.00">aws_subnet.standby&#45;subnet</text>
</g>
<!-- [root] aws_db_subnet_group.duck&#45;subnet&#45;group (expand)&#45;&gt;[root] aws_subnet.standby&#45;subnet (expand) -->
<g id="edge16" class="edge">
<title>[root] aws_db_subnet_group.duck&#45;subnet&#45;group (expand)&#45;&gt;[root] aws_subnet.standby&#45;subnet (expand)</title>
<path fill="none" stroke="black" d="M507.76,-287.7C495.81,-278.8 481.08,-267.82 468.15,-258.2"/>
<polygon fill="black" stroke="black" points="470.08,-255.27 459.97,-252.1 465.9,-260.88 470.08,-255.27"/>
</g>
<!-- [root] aws_iam_policy.rds_proxy_iam_policy (expand) -->
<g id="node6" class="node">
<title>[root] aws_iam_policy.rds_proxy_iam_policy (expand)</title>
<polygon fill="none" stroke="black" points="1278,-468 1046,-468 1046,-432 1278,-432 1278,-468"/>
<text text-anchor="middle" x="1162" y="-446.3" font-family="Times,serif" font-size="14.00">aws_iam_policy.rds_proxy_iam_policy</text>
</g>
<!-- [root] data.aws_iam_policy_document.rds_proxy_policy_document (expand) -->
<g id="node16" class="node">
<title>[root] data.aws_iam_policy_document.rds_proxy_policy_document (expand)</title>
<polygon fill="none" stroke="black" points="1368.5,-396 1015.5,-396 1015.5,-360 1368.5,-360 1368.5,-396"/>
<text text-anchor="middle" x="1192" y="-374.3" font-family="Times,serif" font-size="14.00">data.aws_iam_policy_document.rds_proxy_policy_document</text>
</g>
<!-- [root] aws_iam_policy.rds_proxy_iam_policy (expand)&#45;&gt;[root] data.aws_iam_policy_document.rds_proxy_policy_document (expand) -->
<g id="edge17" class="edge">
<title>[root] aws_iam_policy.rds_proxy_iam_policy (expand)&#45;&gt;[root] data.aws_iam_policy_document.rds_proxy_policy_document (expand)</title>
<path fill="none" stroke="black" d="M1169.42,-431.7C1172.79,-423.81 1176.87,-414.3 1180.62,-405.55"/>
<polygon fill="black" stroke="black" points="1183.95,-406.67 1184.67,-396.1 1177.51,-403.92 1183.95,-406.67"/>
</g>
<!-- [root] data.aws_iam_policy_document.assume_role (expand) -->
<g id="node15" class="node">
<title>[root] data.aws_iam_policy_document.assume_role (expand)</title>
<polygon fill="none" stroke="black" points="1087.5,-180 822.5,-180 822.5,-144 1087.5,-144 1087.5,-180"/>
<text text-anchor="middle" x="955" y="-158.3" font-family="Times,serif" font-size="14.00">data.aws_iam_policy_document.assume_role</text>
</g>
<!-- [root] aws_iam_role.rds_proxy_iam_role (expand)&#45;&gt;[root] data.aws_iam_policy_document.assume_role (expand) -->
<g id="edge18" class="edge">
<title>[root] aws_iam_role.rds_proxy_iam_role (expand)&#45;&gt;[root] data.aws_iam_policy_document.assume_role (expand)</title>
<path fill="none" stroke="black" d="M955,-287.87C955,-263.67 955,-219.21 955,-190.39"/>
<polygon fill="black" stroke="black" points="958.5,-190.19 955,-180.19 951.5,-190.19 958.5,-190.19"/>
</g>
<!-- [root] aws_iam_role_policy_attachment.rds_proxy_iam_attach (expand) -->
<g id="node8" class="node">
<title>[root] aws_iam_role_policy_attachment.rds_proxy_iam_attach (expand)</title>
<polygon fill="none" stroke="black" points="1152,-540 826,-540 826,-504 1152,-504 1152,-540"/>
<text text-anchor="middle" x="989" y="-518.3" font-family="Times,serif" font-size="14.00">aws_iam_role_policy_attachment.rds_proxy_iam_attach</text>
</g>
<!-- [root] aws_iam_role_policy_attachment.rds_proxy_iam_attach (expand)&#45;&gt;[root] aws_iam_policy.rds_proxy_iam_policy (expand) -->
<g id="edge19" class="edge">
<title>[root] aws_iam_role_policy_attachment.rds_proxy_iam_attach (expand)&#45;&gt;[root] aws_iam_policy.rds_proxy_iam_policy (expand)</title>
<path fill="none" stroke="black" d="M1031.32,-503.88C1055.18,-494.22 1085.17,-482.09 1110.4,-471.88"/>
<polygon fill="black" stroke="black" points="1111.86,-475.06 1119.82,-468.07 1109.23,-468.57 1111.86,-475.06"/>
</g>
<!-- [root] aws_iam_role_policy_attachment.rds_proxy_iam_attach (expand)&#45;&gt;[root] aws_iam_role.rds_proxy_iam_role (expand) -->
<g id="edge20" class="edge">
<title>[root] aws_iam_role_policy_attachment.rds_proxy_iam_attach (expand)&#45;&gt;[root] aws_iam_role.rds_proxy_iam_role (expand)</title>
<path fill="none" stroke="black" d="M986.28,-503.85C980.39,-466.83 966.47,-379.18 959.35,-334.39"/>
<polygon fill="black" stroke="black" points="962.76,-333.56 957.74,-324.23 955.85,-334.66 962.76,-333.56"/>
</g>
<!-- [root] provider[&quot;registry.terraform.io/hashicorp/aws&quot;] -->
<g id="node17" class="node">
<title>[root] provider[&quot;registry.terraform.io/hashicorp/aws&quot;]</title>
<polygon fill="none" stroke="black" points="955,-108 702.46,-90 955,-72 1207.54,-90 955,-108"/>
<text text-anchor="middle" x="955" y="-86.3" font-family="Times,serif" font-size="14.00">provider[&quot;registry.terraform.io/hashicorp/aws&quot;]</text>
</g>
<!-- [root] aws_secretsmanager_secret.rds_secret (expand)&#45;&gt;[root] provider[&quot;registry.terraform.io/hashicorp/aws&quot;] -->
<g id="edge21" class="edge">
<title>[root] aws_secretsmanager_secret.rds_secret (expand)&#45;&gt;[root] provider[&quot;registry.terraform.io/hashicorp/aws&quot;]</title>
<path fill="none" stroke="black" d="M1183.63,-287.86C1172.59,-255.31 1144.34,-184.24 1097,-144 1076.64,-126.7 1050.1,-114.79 1025.48,-106.71"/>
<polygon fill="black" stroke="black" points="1026.38,-103.32 1015.79,-103.69 1024.3,-110.01 1026.38,-103.32"/>
</g>
<!-- [root] aws_secretsmanager_secret_version.rds_secret_version (expand) -->
<g id="node10" class="node">
<title>[root] aws_secretsmanager_secret_version.rds_secret_version (expand)</title>
<polygon fill="none" stroke="black" points="959,-468 641,-468 641,-432 959,-432 959,-468"/>
<text text-anchor="middle" x="800" y="-446.3" font-family="Times,serif" font-size="14.00">aws_secretsmanager_secret_version.rds_secret_version</text>
</g>
<!-- [root] aws_secretsmanager_secret_version.rds_secret_version (expand)&#45;&gt;[root] aws_db_instance.database (expand) -->
<g id="edge22" class="edge">
<title>[root] aws_secretsmanager_secret_version.rds_secret_version (expand)&#45;&gt;[root] aws_db_instance.database (expand)</title>
<path fill="none" stroke="black" d="M690.49,-431.97C613.47,-419.98 511.66,-404.15 439.5,-392.92"/>
<polygon fill="black" stroke="black" points="439.94,-389.45 429.52,-391.37 438.86,-396.37 439.94,-389.45"/>
</g>
<!-- [root] aws_secretsmanager_secret_version.rds_secret_version (expand)&#45;&gt;[root] aws_secretsmanager_secret.rds_secret (expand) -->
<g id="edge23" class="edge">
<title>[root] aws_secretsmanager_secret_version.rds_secret_version (expand)&#45;&gt;[root] aws_secretsmanager_secret.rds_secret (expand)</title>
<path fill="none" stroke="black" d="M836.1,-431.87C876.99,-412.85 945.88,-381.94 1007,-360 1041.39,-347.65 1080.17,-336.05 1113.08,-326.86"/>
<polygon fill="black" stroke="black" points="1114.39,-330.13 1123.09,-324.09 1112.52,-323.39 1114.39,-330.13"/>
</g>
<!-- [root] aws_vpc.duck&#45;vpc (expand) -->
<g id="node14" class="node">
<title>[root] aws_vpc.duck&#45;vpc (expand)</title>
<polygon fill="none" stroke="black" points="742,-180 624,-180 624,-144 742,-144 742,-180"/>
<text text-anchor="middle" x="683" y="-158.3" font-family="Times,serif" font-size="14.00">aws_vpc.duck&#45;vpc</text>
</g>
<!-- [root] aws_security_group.rds&#45;sg (expand)&#45;&gt;[root] aws_vpc.duck&#45;vpc (expand) -->
<g id="edge24" class="edge">
<title>[root] aws_security_group.rds&#45;sg (expand)&#45;&gt;[root] aws_vpc.duck&#45;vpc (expand)</title>
<path fill="none" stroke="black" d="M769.16,-287.88C785.51,-269.4 805.63,-239.48 791,-216 781.77,-201.18 767.05,-190.39 751.41,-182.58"/>
<polygon fill="black" stroke="black" points="752.68,-179.31 742.13,-178.31 749.75,-185.67 752.68,-179.31"/>
</g>
<!-- [root] var.port -->
<g id="node22" class="node">
<title>[root] var.port</title>
<polygon fill="none" stroke="black" points="775.5,-252 722.5,-252 722.5,-216 781.5,-216 781.5,-246 775.5,-252"/>
<polyline fill="none" stroke="black" points="775.5,-252 775.5,-246 "/>
<polyline fill="none" stroke="black" points="781.5,-246 775.5,-246 "/>
<text text-anchor="middle" x="752" y="-230.3" font-family="Times,serif" font-size="14.00">var.port</text>
</g>
<!-- [root] aws_security_group.rds&#45;sg (expand)&#45;&gt;[root] var.port -->
<g id="edge25" class="edge">
<title>[root] aws_security_group.rds&#45;sg (expand)&#45;&gt;[root] var.port</title>
<path fill="none" stroke="black" d="M752,-287.7C752,-279.98 752,-270.71 752,-262.11"/>
<polygon fill="black" stroke="black" points="755.5,-262.1 752,-252.1 748.5,-262.1 755.5,-262.1"/>
</g>
<!-- [root] aws_subnet.primary&#45;subnet (expand)&#45;&gt;[root] aws_vpc.duck&#45;vpc (expand) -->
<g id="edge26" class="edge">
<title>[root] aws_subnet.primary&#45;subnet (expand)&#45;&gt;[root] aws_vpc.duck&#45;vpc (expand)</title>
<path fill="none" stroke="black" d="M636.33,-215.7C643.76,-207.3 652.82,-197.07 660.98,-187.86"/>
<polygon fill="black" stroke="black" points="663.84,-189.91 667.85,-180.1 658.6,-185.27 663.84,-189.91"/>
</g>
<!-- [root] aws_subnet.standby&#45;subnet (expand)&#45;&gt;[root] aws_vpc.duck&#45;vpc (expand) -->
<g id="edge27" class="edge">
<title>[root] aws_subnet.standby&#45;subnet (expand)&#45;&gt;[root] aws_vpc.duck&#45;vpc (expand)</title>
<path fill="none" stroke="black" d="M496.86,-215.97C532.24,-205.9 577.19,-193.11 614.05,-182.62"/>
<polygon fill="black" stroke="black" points="615.06,-185.97 623.72,-179.87 613.14,-179.24 615.06,-185.97"/>
</g>
<!-- [root] aws_vpc.duck&#45;vpc (expand)&#45;&gt;[root] provider[&quot;registry.terraform.io/hashicorp/aws&quot;] -->
<g id="edge28" class="edge">
<title>[root] aws_vpc.duck&#45;vpc (expand)&#45;&gt;[root] provider[&quot;registry.terraform.io/hashicorp/aws&quot;]</title>
<path fill="none" stroke="black" d="M742.02,-145.81C786.71,-134.31 847.93,-118.55 893.27,-106.89"/>
<polygon fill="black" stroke="black" points="894.17,-110.27 902.98,-104.39 892.42,-103.49 894.17,-110.27"/>
</g>
<!-- [root] data.aws_iam_policy_document.assume_role (expand)&#45;&gt;[root] provider[&quot;registry.terraform.io/hashicorp/aws&quot;] -->
<g id="edge29" class="edge">
<title>[root] data.aws_iam_policy_document.assume_role (expand)&#45;&gt;[root] provider[&quot;registry.terraform.io/hashicorp/aws&quot;]</title>
<path fill="none" stroke="black" d="M955,-143.7C955,-135.98 955,-126.71 955,-118.11"/>
<polygon fill="black" stroke="black" points="958.5,-118.1 955,-108.1 951.5,-118.1 958.5,-118.1"/>
</g>
<!-- [root] data.aws_iam_policy_document.rds_proxy_policy_document (expand)&#45;&gt;[root] aws_secretsmanager_secret.rds_secret (expand) -->
<g id="edge30" class="edge">
<title>[root] data.aws_iam_policy_document.rds_proxy_policy_document (expand)&#45;&gt;[root] aws_secretsmanager_secret.rds_secret (expand)</title>
<path fill="none" stroke="black" d="M1191.26,-359.7C1190.93,-351.98 1190.53,-342.71 1190.16,-334.11"/>
<polygon fill="black" stroke="black" points="1193.66,-333.95 1189.73,-324.1 1186.66,-334.25 1193.66,-333.95"/>
</g>
<!-- [root] var.access_key -->
<g id="node18" class="node">
<title>[root] var.access_key</title>
<polygon fill="none" stroke="black" points="895,-36 803,-36 803,0 901,0 901,-30 895,-36"/>
<polyline fill="none" stroke="black" points="895,-36 895,-30 "/>
<polyline fill="none" stroke="black" points="901,-30 895,-30 "/>
<text text-anchor="middle" x="852" y="-14.3" font-family="Times,serif" font-size="14.00">var.access_key</text>
</g>
<!-- [root] provider[&quot;registry.terraform.io/hashicorp/aws&quot;]&#45;&gt;[root] var.access_key -->
<g id="edge34" class="edge">
<title>[root] provider[&quot;registry.terraform.io/hashicorp/aws&quot;]&#45;&gt;[root] var.access_key</title>
<path fill="none" stroke="black" d="M932.14,-73.46C918.57,-64.24 901.1,-52.37 885.94,-42.06"/>
<polygon fill="black" stroke="black" points="887.56,-38.94 877.32,-36.21 883.63,-44.73 887.56,-38.94"/>
</g>
<!-- [root] var.region -->
<g id="node23" class="node">
<title>[root] var.region</title>
<polygon fill="none" stroke="black" points="984.5,-36 919.5,-36 919.5,0 990.5,0 990.5,-30 984.5,-36"/>
<polyline fill="none" stroke="black" points="984.5,-36 984.5,-30 "/>
<polyline fill="none" stroke="black" points="990.5,-30 984.5,-30 "/>
<text text-anchor="middle" x="955" y="-14.3" font-family="Times,serif" font-size="14.00">var.region</text>
</g>
<!-- [root] provider[&quot;registry.terraform.io/hashicorp/aws&quot;]&#45;&gt;[root] var.region -->
<g id="edge35" class="edge">
<title>[root] provider[&quot;registry.terraform.io/hashicorp/aws&quot;]&#45;&gt;[root] var.region</title>
<path fill="none" stroke="black" d="M955,-71.7C955,-63.98 955,-54.71 955,-46.11"/>
<polygon fill="black" stroke="black" points="958.5,-46.1 955,-36.1 951.5,-46.1 958.5,-46.1"/>
</g>
<!-- [root] var.secret_key -->
<g id="node24" class="node">
<title>[root] var.secret_key</title>
<polygon fill="none" stroke="black" points="1097.5,-36 1008.5,-36 1008.5,0 1103.5,0 1103.5,-30 1097.5,-36"/>
<polyline fill="none" stroke="black" points="1097.5,-36 1097.5,-30 "/>
<polyline fill="none" stroke="black" points="1103.5,-30 1097.5,-30 "/>
<text text-anchor="middle" x="1056" y="-14.3" font-family="Times,serif" font-size="14.00">var.secret_key</text>
</g>
<!-- [root] provider[&quot;registry.terraform.io/hashicorp/aws&quot;]&#45;&gt;[root] var.secret_key -->
<g id="edge36" class="edge">
<title>[root] provider[&quot;registry.terraform.io/hashicorp/aws&quot;]&#45;&gt;[root] var.secret_key</title>
<path fill="none" stroke="black" d="M977.42,-73.46C990.73,-64.24 1007.86,-52.37 1022.72,-42.06"/>
<polygon fill="black" stroke="black" points="1024.94,-44.78 1031.17,-36.21 1020.95,-39.03 1024.94,-44.78"/>
</g>
<!-- [root] provider[&quot;registry.terraform.io/hashicorp/aws&quot;] (close) -->
<g id="node26" class="node">
<title>[root] provider[&quot;registry.terraform.io/hashicorp/aws&quot;] (close)</title>
<ellipse fill="none" stroke="black" cx="798" cy="-594" rx="227.46" ry="18"/>
<text text-anchor="middle" x="798" y="-590.3" font-family="Times,serif" font-size="14.00">[root] provider[&quot;registry.terraform.io/hashicorp/aws&quot;] (close)</text>
</g>
<!-- [root] provider[&quot;registry.terraform.io/hashicorp/aws&quot;] (close)&#45;&gt;[root] aws_db_proxy_target.example (expand) -->
<g id="edge31" class="edge">
<title>[root] provider[&quot;registry.terraform.io/hashicorp/aws&quot;] (close)&#45;&gt;[root] aws_db_proxy_target.example (expand)</title>
<path fill="none" stroke="black" d="M728.57,-576.85C684.32,-566.56 626.74,-553.17 580.07,-542.32"/>
<polygon fill="black" stroke="black" points="580.82,-538.9 570.28,-540.04 579.23,-545.72 580.82,-538.9"/>
</g>
<!-- [root] provider[&quot;registry.terraform.io/hashicorp/aws&quot;] (close)&#45;&gt;[root] aws_iam_role_policy_attachment.rds_proxy_iam_attach (expand) -->
<g id="edge32" class="edge">
<title>[root] provider[&quot;registry.terraform.io/hashicorp/aws&quot;] (close)&#45;&gt;[root] aws_iam_role_policy_attachment.rds_proxy_iam_attach (expand)</title>
<path fill="none" stroke="black" d="M843.75,-576.23C870.52,-566.42 904.53,-553.96 932.91,-543.56"/>
<polygon fill="black" stroke="black" points="934.11,-546.84 942.3,-540.12 931.7,-540.27 934.11,-546.84"/>
</g>
<!-- [root] provider[&quot;registry.terraform.io/hashicorp/aws&quot;] (close)&#45;&gt;[root] aws_secretsmanager_secret_version.rds_secret_version (expand) -->
<g id="edge33" class="edge">
<title>[root] provider[&quot;registry.terraform.io/hashicorp/aws&quot;] (close)&#45;&gt;[root] aws_secretsmanager_secret_version.rds_secret_version (expand)</title>
<path fill="none" stroke="black" d="M798.24,-575.87C798.58,-551.67 799.21,-507.21 799.61,-478.39"/>
<polygon fill="black" stroke="black" points="803.12,-478.24 799.76,-468.19 796.12,-478.14 803.12,-478.24"/>
</g>
<!-- [root] root -->
<g id="node27" class="node">
<title>[root] root</title>
<ellipse fill="none" stroke="black" cx="798" cy="-666" rx="47.39" ry="18"/>
<text text-anchor="middle" x="798" y="-662.3" font-family="Times,serif" font-size="14.00">[root] root</text>
</g>
<!-- [root] root&#45;&gt;[root] provider[&quot;registry.terraform.io/hashicorp/aws&quot;] (close) -->
<g id="edge37" class="edge">
<title>[root] root&#45;&gt;[root] provider[&quot;registry.terraform.io/hashicorp/aws&quot;] (close)</title>
<path fill="none" stroke="black" d="M798,-647.7C798,-639.98 798,-630.71 798,-622.11"/>
<polygon fill="black" stroke="black" points="801.5,-622.1 798,-612.1 794.5,-622.1 801.5,-622.1"/>
</g>
</g>
</svg>
